<svg width="12" height="9" viewBox="0 0 12 9" fill="none" xmlns="http://www.w3.org/2000/svg">
<path d="M11.8052 3.79264L11.8052 4.3938L0.549862 4.3938L0.549862 3.79264L6.17752 3.79264L7.99634 3.79264L9.94356 3.89999L9.94356 3.83558L9.59003 3.62022C9.03345 3.28116 8.55685 2.82565 8.19295 2.28499L7.99269 1.98744C7.75383 1.63255 7.5666 1.24552 7.43662 0.837963L7.29021 0.378906L8.89506 0.378906C8.89506 0.378906 9.01776 1.08451 9.23742 1.53829C9.31961 1.70807 9.41819 1.89867 9.52154 2.09203C9.99018 2.96871 10.8356 3.5734 11.8052 3.79264Z" fill="#D4441C"/>
<path d="M11.8052 5.05393L11.8052 4.37305L0.549862 4.37305L0.549862 5.05393L6.17752 5.05393L7.99634 5.05393L9.94356 4.94706L9.94356 5.01119L9.59087 5.22507C9.03374 5.56295 8.55631 6.01739 8.19137 6.55718L7.9948 6.84792C7.75455 7.20329 7.56614 7.59108 7.43527 7.99959L7.29021 8.45239L8.89506 8.45239C8.89506 8.45239 9.01776 7.74994 9.23742 7.2982C9.31899 7.13045 9.4167 6.94228 9.51921 6.75129C9.98926 5.87548 10.8355 5.27221 11.8052 5.05393Z" fill="#D4441C"/>
</svg>
