<svg width="242" height="65" viewBox="0 0 242 65" fill="none" xmlns="http://www.w3.org/2000/svg">
<rect x="79.4119" y="37.3356" width="37.7206" height="10.0907" fill="#C1EFF6"/>
<rect x="117.132" y="37.3356" width="37.7206" height="10.0907" fill="#C1EFF6"/>
<rect x="3.9707" y="37.3356" width="37.7206" height="10.0907" fill="#465EB3"/>
<rect x="192.573" y="37.3356" width="37.7206" height="10.0907" fill="#51BC7E"/>
<rect x="41.6912" y="37.3356" width="37.7206" height="10.0907" fill="#80A2D3"/>
<rect x="154.853" y="37.3356" width="37.7206" height="10.0907" fill="#85D4B6"/>
<line x1="116.632" y1="47.4263" x2="116.632" y2="33.2993" stroke="#2C390B"/>
<line x1="4.46313" y1="47.4263" x2="4.46314" y2="33.2993" stroke="#2C390B"/>
<line x1="229.794" y1="47.4263" x2="229.794" y2="33.2993" stroke="#2C390B"/>
<path d="M4.303 59.6932C5.07433 59.6932 5.67233 59.3725 6.097 58.7312C6.52167 58.0899 6.734 57.2189 6.734 56.1182V56.0922C6.734 54.9915 6.52167 54.1335 6.097 53.5182C5.681 52.8942 5.083 52.5822 4.303 52.5822C3.523 52.5822 2.92067 52.8942 2.496 53.5182C2.08 54.1335 1.872 54.9959 1.872 56.1052V56.1312C1.872 57.2232 2.08433 58.0899 2.509 58.7312C2.94233 59.3725 3.54033 59.6932 4.303 59.6932ZM4.303 60.5642C3.73967 60.5642 3.24133 60.4559 2.808 60.2392C2.37467 60.0225 2.01067 59.7235 1.716 59.3422C1.42133 58.9522 1.196 58.4842 1.04 57.9382C0.884 57.3835 0.806 56.7769 0.806 56.1182C0.806 55.4595 0.879667 54.8572 1.027 54.3112C1.183 53.7565 1.40833 53.2885 1.703 52.9072C1.99767 52.5259 2.36167 52.2312 2.795 52.0232C3.237 51.8065 3.73967 51.6982 4.303 51.6982C4.86633 51.6982 5.36467 51.8065 5.798 52.0232C6.23133 52.2312 6.59533 52.5259 6.89 52.9072C7.18467 53.2885 7.41 53.7522 7.566 54.2982C7.722 54.8442 7.8 55.4465 7.8 56.1052C7.8 56.7639 7.722 57.3705 7.566 57.9252C7.41 58.4712 7.18467 58.9392 6.89 59.3292C6.59533 59.7192 6.227 60.0225 5.785 60.2392C5.35167 60.4559 4.85767 60.5642 4.303 60.5642Z" fill="#606B44"/>
<path d="M221.438 60.4082V54.7532L221.516 53.3102H221.49C221.23 53.8042 220.87 54.2159 220.411 54.5452C219.96 54.8745 219.449 55.1085 218.877 55.2472V54.0642C219.128 54.0295 219.388 53.9602 219.657 53.8562C219.934 53.7522 220.194 53.6135 220.437 53.4402C220.679 53.2582 220.892 53.0372 221.074 52.7772C221.264 52.5172 221.399 52.2139 221.477 51.8672H222.491V60.4082H221.438ZM228.272 59.6932C229.043 59.6932 229.641 59.3725 230.066 58.7312C230.49 58.0899 230.703 57.2189 230.703 56.1182V56.0922C230.703 54.9915 230.49 54.1335 230.066 53.5182C229.65 52.8942 229.052 52.5822 228.272 52.5822C227.492 52.5822 226.889 52.8942 226.465 53.5182C226.049 54.1335 225.841 54.9959 225.841 56.1052V56.1312C225.841 57.2232 226.053 58.0899 226.478 58.7312C226.911 59.3725 227.509 59.6932 228.272 59.6932ZM228.272 60.5642C227.708 60.5642 227.21 60.4559 226.777 60.2392C226.343 60.0225 225.979 59.7235 225.685 59.3422C225.39 58.9522 225.165 58.4842 225.009 57.9382C224.853 57.3835 224.775 56.7769 224.775 56.1182C224.775 55.4595 224.848 54.8572 224.996 54.3112C225.152 53.7565 225.377 53.2885 225.672 52.9072C225.966 52.5259 226.33 52.2312 226.764 52.0232C227.206 51.8065 227.708 51.6982 228.272 51.6982C228.835 51.6982 229.333 51.8065 229.767 52.0232C230.2 52.2312 230.564 52.5259 230.859 52.9072C231.153 53.2885 231.379 53.7522 231.535 54.2982C231.691 54.8442 231.769 55.4465 231.769 56.1052C231.769 56.7639 231.691 57.3705 231.535 57.9252C231.379 58.4712 231.153 58.9392 230.859 59.3292C230.564 59.7192 230.196 60.0225 229.754 60.2392C229.32 60.4559 228.826 60.5642 228.272 60.5642ZM236.879 59.6932C237.651 59.6932 238.249 59.3725 238.673 58.7312C239.098 58.0899 239.31 57.2189 239.31 56.1182V56.0922C239.31 54.9915 239.098 54.1335 238.673 53.5182C238.257 52.8942 237.659 52.5822 236.879 52.5822C236.099 52.5822 235.497 52.8942 235.072 53.5182C234.656 54.1335 234.448 54.9959 234.448 56.1052V56.1312C234.448 57.2232 234.661 58.0899 235.085 58.7312C235.519 59.3725 236.117 59.6932 236.879 59.6932ZM236.879 60.5642C236.316 60.5642 235.818 60.4559 235.384 60.2392C234.951 60.0225 234.587 59.7235 234.292 59.3422C233.998 58.9522 233.772 58.4842 233.616 57.9382C233.46 57.3835 233.382 56.7769 233.382 56.1182C233.382 55.4595 233.456 54.8572 233.603 54.3112C233.759 53.7565 233.985 53.2885 234.279 52.9072C234.574 52.5259 234.938 52.2312 235.371 52.0232C235.813 51.8065 236.316 51.6982 236.879 51.6982C237.443 51.6982 237.941 51.8065 238.374 52.0232C238.808 52.2312 239.172 52.5259 239.466 52.9072C239.761 53.2885 239.986 53.7522 240.142 54.2982C240.298 54.8442 240.376 55.4465 240.376 56.1052C240.376 56.7639 240.298 57.3705 240.142 57.9252C239.986 58.4712 239.761 58.9392 239.466 59.3292C239.172 59.7192 238.803 60.0225 238.361 60.2392C237.928 60.4559 237.434 60.5642 236.879 60.5642Z" fill="#606B44"/>
<path d="M99.7263 12L102.833 3.459H104.198L107.266 12H106.174L105.329 9.543H101.676L100.818 12H99.7263ZM102.976 5.799L101.962 8.685H105.056L104.042 5.799L103.535 4.109H103.483L102.976 5.799ZM111.847 12.104C111.301 12.104 110.82 11.9437 110.404 11.623C109.996 11.3023 109.71 10.8863 109.546 10.375L109.559 12H108.623V2.51H109.624V5.864L109.572 7.034H109.65C109.806 6.592 110.083 6.215 110.482 5.903C110.889 5.58233 111.37 5.422 111.925 5.422C112.765 5.422 113.398 5.71233 113.823 6.293C114.256 6.865 114.473 7.64933 114.473 8.646C114.473 9.72933 114.221 10.5787 113.719 11.194C113.225 11.8007 112.601 12.104 111.847 12.104ZM111.561 11.298C112.115 11.298 112.562 11.0597 112.9 10.583C113.238 10.1063 113.407 9.48667 113.407 8.724C113.407 7.93533 113.259 7.32 112.965 6.878C112.67 6.436 112.211 6.215 111.587 6.215C111.283 6.215 111.006 6.28867 110.755 6.436C110.503 6.58333 110.291 6.774 110.118 7.008C109.944 7.23333 109.81 7.49333 109.715 7.788C109.619 8.08267 109.572 8.373 109.572 8.659V8.997C109.572 9.699 109.754 10.258 110.118 10.674C110.482 11.09 110.963 11.298 111.561 11.298ZM118.8 12.13C117.821 12.13 117.062 11.831 116.525 11.233C115.996 10.6263 115.732 9.80733 115.732 8.776C115.732 8.308 115.801 7.87033 115.94 7.463C116.087 7.047 116.291 6.69167 116.551 6.397C116.82 6.09367 117.149 5.85533 117.539 5.682C117.929 5.50867 118.371 5.422 118.865 5.422C119.827 5.422 120.568 5.72533 121.088 6.332C121.608 6.93867 121.868 7.74467 121.868 8.75C121.868 9.244 121.794 9.699 121.647 10.115C121.508 10.531 121.305 10.8907 121.036 11.194C120.767 11.4887 120.442 11.7183 120.061 11.883C119.688 12.0477 119.268 12.13 118.8 12.13ZM118.8 11.324C119.424 11.324 119.914 11.0943 120.269 10.635C120.624 10.167 120.802 9.543 120.802 8.763C120.802 8.00033 120.637 7.385 120.308 6.917C119.979 6.449 119.493 6.215 118.852 6.215C118.202 6.215 117.695 6.45333 117.331 6.93C116.976 7.398 116.798 8.009 116.798 8.763C116.798 9.543 116.971 10.167 117.318 10.635C117.673 11.0943 118.167 11.324 118.8 11.324ZM125.513 12.117C124.82 12.1083 124.313 11.8917 123.992 11.467C123.68 11.0423 123.524 10.44 123.524 9.66V5.565H124.564V9.53C124.564 10.128 124.659 10.5613 124.85 10.83C125.049 11.0987 125.37 11.233 125.812 11.233C126.297 11.233 126.705 11.0207 127.034 10.596C127.372 10.1627 127.558 9.59933 127.593 8.906V5.565H128.633V12H127.658V11.298L127.697 10.18H127.632C127.606 10.3533 127.541 10.5527 127.437 10.778C127.342 11.0033 127.207 11.2157 127.034 11.415C126.861 11.6057 126.644 11.7703 126.384 11.909C126.133 12.0477 125.842 12.117 125.513 12.117ZM130.097 6.423V5.565H131.241L131.254 3.836L132.164 3.42V5.071L132.125 5.565H133.958V6.423H132.112L132.164 6.956V10.076C132.164 10.5353 132.225 10.843 132.346 10.999C132.467 11.155 132.714 11.233 133.087 11.233C133.269 11.233 133.447 11.22 133.62 11.194C133.802 11.1593 133.98 11.1117 134.153 11.051V11.844C133.971 11.9047 133.754 11.961 133.503 12.013C133.26 12.065 133.022 12.091 132.788 12.091C132.216 12.091 131.804 11.9523 131.553 11.675C131.31 11.3977 131.189 10.9297 131.189 10.271V6.423H130.097ZM99.1737 25C99.1044 24.9047 99.0437 24.7443 98.9917 24.519C98.9397 24.2937 98.9094 23.9643 98.9007 23.531C98.762 23.999 98.4847 24.3803 98.0687 24.675C97.6527 24.9697 97.1804 25.117 96.6517 25.117C96.0104 25.1083 95.5294 24.9393 95.2087 24.61C94.888 24.2807 94.7277 23.869 94.7277 23.375C94.7364 22.7857 94.9487 22.3437 95.3647 22.049C95.7894 21.7543 96.344 21.542 97.0287 21.412C97.6614 21.282 98.125 21.1737 98.4197 21.087C98.7144 20.9917 98.866 20.8617 98.8747 20.697V20.58C98.8747 20.1467 98.7577 19.8173 98.5237 19.592C98.2984 19.3667 97.9387 19.254 97.4447 19.254C97.0374 19.254 96.669 19.3537 96.3397 19.553C96.0104 19.7437 95.7764 19.982 95.6377 20.268L94.8317 19.839C95.0484 19.423 95.3994 19.0893 95.8847 18.838C96.3787 18.578 96.929 18.448 97.5357 18.448C98.3157 18.448 98.9007 18.6343 99.2907 19.007C99.6894 19.3797 99.8887 19.9473 99.8887 20.71V22.868C99.8887 23.544 99.919 24.0423 99.9797 24.363C100.049 24.675 100.127 24.8873 100.214 25H99.1737ZM96.9117 24.337C97.423 24.337 97.865 24.1723 98.2377 23.843C98.619 23.505 98.8314 23.0803 98.8747 22.569V21.308C98.8054 21.4207 98.645 21.5247 98.3937 21.62C98.1424 21.7153 97.8824 21.7933 97.6137 21.854C97.033 21.984 96.578 22.1573 96.2487 22.374C95.928 22.582 95.7677 22.8853 95.7677 23.284C95.7677 23.6307 95.876 23.895 96.0927 24.077C96.318 24.2503 96.591 24.337 96.9117 24.337ZM103.484 25.013L101.014 18.565H102.145L103.562 22.647L103.952 24.09H104.004L104.433 22.621L105.824 18.565H106.955L104.459 25.013H103.484ZM110.732 25.13C109.779 25.13 109.038 24.831 108.509 24.233C107.989 23.635 107.733 22.816 107.742 21.776C107.742 20.7187 108.015 19.8953 108.561 19.306C109.107 18.7167 109.822 18.422 110.706 18.422C111.183 18.422 111.594 18.5 111.941 18.656C112.288 18.812 112.569 19.0287 112.786 19.306C113.003 19.5747 113.159 19.8997 113.254 20.281C113.358 20.6537 113.41 21.0567 113.41 21.49C113.41 21.5247 113.41 21.6113 113.41 21.75C113.41 21.8887 113.406 21.9667 113.397 21.984H108.769C108.804 22.7727 108.999 23.362 109.354 23.752C109.718 24.1333 110.195 24.324 110.784 24.324C111.2 24.324 111.551 24.2417 111.837 24.077C112.123 23.9037 112.344 23.6957 112.5 23.453L113.189 23.934C112.955 24.272 112.634 24.558 112.227 24.792C111.828 25.0173 111.33 25.13 110.732 25.13ZM110.667 19.202C110.173 19.202 109.744 19.3667 109.38 19.696C109.025 20.0167 108.825 20.5497 108.782 21.295H112.37V21.204C112.37 20.5887 112.236 20.1033 111.967 19.748C111.698 19.384 111.265 19.202 110.667 19.202ZM115.192 25V18.565H116.167V19.475L116.037 21.503H116.115C116.167 21.1303 116.249 20.7663 116.362 20.411C116.474 20.047 116.626 19.7263 116.817 19.449C117.007 19.163 117.237 18.9333 117.506 18.76C117.783 18.578 118.099 18.487 118.455 18.487H118.663V19.683C118.602 19.6743 118.533 19.67 118.455 19.67C118.385 19.67 118.312 19.67 118.234 19.67C117.93 19.67 117.662 19.7393 117.428 19.878C117.194 20.0167 116.99 20.203 116.817 20.437C116.652 20.671 116.518 20.9527 116.414 21.282C116.31 21.6027 116.236 21.945 116.193 22.309V25H115.192ZM123.917 25C123.848 24.9047 123.787 24.7443 123.735 24.519C123.683 24.2937 123.653 23.9643 123.644 23.531C123.505 23.999 123.228 24.3803 122.812 24.675C122.396 24.9697 121.924 25.117 121.395 25.117C120.754 25.1083 120.273 24.9393 119.952 24.61C119.631 24.2807 119.471 23.869 119.471 23.375C119.48 22.7857 119.692 22.3437 120.108 22.049C120.533 21.7543 121.087 21.542 121.772 21.412C122.405 21.282 122.868 21.1737 123.163 21.087C123.458 20.9917 123.609 20.8617 123.618 20.697V20.58C123.618 20.1467 123.501 19.8173 123.267 19.592C123.042 19.3667 122.682 19.254 122.188 19.254C121.781 19.254 121.412 19.3537 121.083 19.553C120.754 19.7437 120.52 19.982 120.381 20.268L119.575 19.839C119.792 19.423 120.143 19.0893 120.628 18.838C121.122 18.578 121.672 18.448 122.279 18.448C123.059 18.448 123.644 18.6343 124.034 19.007C124.433 19.3797 124.632 19.9473 124.632 20.71V22.868C124.632 23.544 124.662 24.0423 124.723 24.363C124.792 24.675 124.87 24.8873 124.957 25H123.917ZM121.655 24.337C122.166 24.337 122.608 24.1723 122.981 23.843C123.362 23.505 123.575 23.0803 123.618 22.569V21.308C123.549 21.4207 123.388 21.5247 123.137 21.62C122.886 21.7153 122.626 21.7933 122.357 21.854C121.776 21.984 121.321 22.1573 120.992 22.374C120.671 22.582 120.511 22.8853 120.511 23.284C120.511 23.6307 120.619 23.895 120.836 24.077C121.061 24.2503 121.334 24.337 121.655 24.337ZM129.123 23.063C128.993 23.063 128.867 23.0587 128.746 23.05C128.624 23.0327 128.507 23.011 128.395 22.985C128.109 23.0283 127.892 23.115 127.745 23.245C127.597 23.3663 127.524 23.4963 127.524 23.635C127.524 23.7997 127.589 23.9513 127.719 24.09C127.857 24.22 128.156 24.311 128.616 24.363C128.702 24.3717 128.811 24.3847 128.941 24.402C129.079 24.4107 129.218 24.4237 129.357 24.441C129.504 24.4497 129.647 24.4627 129.786 24.48C129.933 24.4887 130.054 24.4973 130.15 24.506C130.826 24.584 131.359 24.7313 131.749 24.948C132.139 25.156 132.334 25.5243 132.334 26.053C132.334 26.6423 132.043 27.132 131.463 27.522C130.882 27.912 130.08 28.107 129.058 28.107H128.928C128.018 28.107 127.333 27.9597 126.874 27.665C126.414 27.3703 126.185 26.9803 126.185 26.495C126.185 26.1483 126.328 25.845 126.614 25.585C126.908 25.3337 127.303 25.1647 127.797 25.078C127.433 25.0087 127.151 24.87 126.952 24.662C126.761 24.454 126.666 24.2157 126.666 23.947C126.666 23.687 126.765 23.4573 126.965 23.258C127.164 23.0587 127.459 22.9113 127.849 22.816C127.433 22.6253 127.112 22.348 126.887 21.984C126.661 21.62 126.549 21.217 126.549 20.775C126.549 20.125 126.778 19.5747 127.238 19.124C127.697 18.6647 128.347 18.435 129.188 18.435C129.673 18.435 130.098 18.5217 130.462 18.695C130.826 18.8597 131.116 19.0807 131.333 19.358C131.419 19.0633 131.575 18.8467 131.801 18.708C132.026 18.5607 132.282 18.487 132.568 18.487C132.611 18.487 132.654 18.4913 132.698 18.5C132.741 18.5087 132.776 18.5173 132.802 18.526V19.514C132.776 19.5053 132.737 19.4967 132.685 19.488C132.633 19.4707 132.572 19.462 132.503 19.462C132.355 19.462 132.195 19.4837 132.022 19.527C131.848 19.5703 131.705 19.6613 131.593 19.8C131.653 19.9387 131.701 20.086 131.736 20.242C131.77 20.398 131.788 20.5583 131.788 20.723C131.788 21.4163 131.549 21.9797 131.073 22.413C130.596 22.8463 129.946 23.063 129.123 23.063ZM129.175 22.348C129.721 22.348 130.128 22.1963 130.397 21.893C130.674 21.581 130.813 21.1953 130.813 20.736C130.813 20.294 130.678 19.917 130.41 19.605C130.141 19.293 129.729 19.137 129.175 19.137C128.611 19.137 128.2 19.3017 127.94 19.631C127.68 19.9517 127.55 20.3243 127.55 20.749C127.55 21.1997 127.68 21.581 127.94 21.893C128.208 22.1963 128.62 22.348 129.175 22.348ZM129.851 25.364C129.651 25.338 129.396 25.3077 129.084 25.273C128.78 25.247 128.507 25.2297 128.265 25.221C127.892 25.2903 127.606 25.416 127.407 25.598C127.207 25.7887 127.112 26.0053 127.121 26.248C127.121 26.5947 127.285 26.8633 127.615 27.054C127.953 27.2533 128.434 27.353 129.058 27.353H129.201C129.989 27.353 130.553 27.2273 130.891 26.976C131.229 26.7333 131.398 26.4517 131.398 26.131C131.398 25.8363 131.25 25.6457 130.956 25.559C130.661 25.4723 130.293 25.4073 129.851 25.364ZM136.541 25.13C135.588 25.13 134.847 24.831 134.318 24.233C133.798 23.635 133.543 22.816 133.551 21.776C133.551 20.7187 133.824 19.8953 134.37 19.306C134.916 18.7167 135.631 18.422 136.515 18.422C136.992 18.422 137.404 18.5 137.75 18.656C138.097 18.812 138.379 19.0287 138.595 19.306C138.812 19.5747 138.968 19.8997 139.063 20.281C139.167 20.6537 139.219 21.0567 139.219 21.49C139.219 21.5247 139.219 21.6113 139.219 21.75C139.219 21.8887 139.215 21.9667 139.206 21.984H134.578C134.613 22.7727 134.808 23.362 135.163 23.752C135.527 24.1333 136.004 24.324 136.593 24.324C137.009 24.324 137.36 24.2417 137.646 24.077C137.932 23.9037 138.153 23.6957 138.309 23.453L138.998 23.934C138.764 24.272 138.444 24.558 138.036 24.792C137.638 25.0173 137.139 25.13 136.541 25.13ZM136.476 19.202C135.982 19.202 135.553 19.3667 135.189 19.696C134.834 20.0167 134.635 20.5497 134.591 21.295H138.179V21.204C138.179 20.5887 138.045 20.1033 137.776 19.748C137.508 19.384 137.074 19.202 136.476 19.202Z" fill="#606B44"/>
<path d="M169.974 12L167.556 3.459H168.648L170.117 9.14L170.494 11.155H170.559L170.936 9.14L172.483 3.459H173.588L175.148 9.14L175.525 11.155H175.59L175.98 9.14L177.436 3.459H178.502L176.097 12H174.979L173.341 6.007L173.016 4.252H172.977L172.652 6.007L171.066 12H169.974ZM182.275 12.13C181.322 12.13 180.581 11.831 180.052 11.233C179.532 10.635 179.277 9.816 179.285 8.776C179.285 7.71867 179.558 6.89533 180.104 6.306C180.65 5.71667 181.365 5.422 182.249 5.422C182.726 5.422 183.138 5.5 183.484 5.656C183.831 5.812 184.113 6.02867 184.329 6.306C184.546 6.57467 184.702 6.89967 184.797 7.281C184.901 7.65367 184.953 8.05667 184.953 8.49C184.953 8.52467 184.953 8.61133 184.953 8.75C184.953 8.88867 184.949 8.96667 184.94 8.984H180.312C180.347 9.77267 180.542 10.362 180.897 10.752C181.261 11.1333 181.738 11.324 182.327 11.324C182.743 11.324 183.094 11.2417 183.38 11.077C183.666 10.9037 183.887 10.6957 184.043 10.453L184.732 10.934C184.498 11.272 184.178 11.558 183.77 11.792C183.372 12.0173 182.873 12.13 182.275 12.13ZM182.21 6.202C181.716 6.202 181.287 6.36667 180.923 6.696C180.568 7.01667 180.369 7.54967 180.325 8.295H183.913V8.204C183.913 7.58867 183.779 7.10333 183.51 6.748C183.242 6.384 182.808 6.202 182.21 6.202ZM186.787 12V2.51H187.801V12H186.787ZM190.151 12V2.51H191.165V12H190.151ZM200.094 12C200.025 11.9047 199.964 11.7443 199.912 11.519C199.86 11.2937 199.83 10.9643 199.821 10.531C199.682 10.999 199.405 11.3803 198.989 11.675C198.573 11.9697 198.101 12.117 197.572 12.117C196.931 12.1083 196.45 11.9393 196.129 11.61C195.808 11.2807 195.648 10.869 195.648 10.375C195.657 9.78567 195.869 9.34367 196.285 9.049C196.71 8.75433 197.264 8.542 197.949 8.412C198.582 8.282 199.045 8.17367 199.34 8.087C199.635 7.99167 199.786 7.86167 199.795 7.697V7.58C199.795 7.14667 199.678 6.81733 199.444 6.592C199.219 6.36667 198.859 6.254 198.365 6.254C197.958 6.254 197.589 6.35367 197.26 6.553C196.931 6.74367 196.697 6.982 196.558 7.268L195.752 6.839C195.969 6.423 196.32 6.08933 196.805 5.838C197.299 5.578 197.849 5.448 198.456 5.448C199.236 5.448 199.821 5.63433 200.211 6.007C200.61 6.37967 200.809 6.94733 200.809 7.71V9.868C200.809 10.544 200.839 11.0423 200.9 11.363C200.969 11.675 201.047 11.8873 201.134 12H200.094ZM197.832 11.337C198.343 11.337 198.785 11.1723 199.158 10.843C199.539 10.505 199.752 10.0803 199.795 9.569V8.308C199.726 8.42067 199.565 8.52467 199.314 8.62C199.063 8.71533 198.803 8.79333 198.534 8.854C197.953 8.984 197.498 9.15733 197.169 9.374C196.848 9.582 196.688 9.88533 196.688 10.284C196.688 10.6307 196.796 10.895 197.013 11.077C197.238 11.2503 197.511 11.337 197.832 11.337ZM206.21 12.104C205.664 12.104 205.183 11.9437 204.767 11.623C204.359 11.3023 204.073 10.8863 203.909 10.375L203.922 12H202.986V2.51H203.987V5.864L203.935 7.034H204.013C204.169 6.592 204.446 6.215 204.845 5.903C205.252 5.58233 205.733 5.422 206.288 5.422C207.128 5.422 207.761 5.71233 208.186 6.293C208.619 6.865 208.836 7.64933 208.836 8.646C208.836 9.72933 208.584 10.5787 208.082 11.194C207.588 11.8007 206.964 12.104 206.21 12.104ZM205.924 11.298C206.478 11.298 206.925 11.0597 207.263 10.583C207.601 10.1063 207.77 9.48667 207.77 8.724C207.77 7.93533 207.622 7.32 207.328 6.878C207.033 6.436 206.574 6.215 205.95 6.215C205.646 6.215 205.369 6.28867 205.118 6.436C204.866 6.58333 204.654 6.774 204.481 7.008C204.307 7.23333 204.173 7.49333 204.078 7.788C203.982 8.08267 203.935 8.373 203.935 8.659V8.997C203.935 9.699 204.117 10.258 204.481 10.674C204.845 11.09 205.326 11.298 205.924 11.298ZM213.163 12.13C212.184 12.13 211.426 11.831 210.888 11.233C210.36 10.6263 210.095 9.80733 210.095 8.776C210.095 8.308 210.165 7.87033 210.303 7.463C210.451 7.047 210.654 6.69167 210.914 6.397C211.183 6.09367 211.512 5.85533 211.902 5.682C212.292 5.50867 212.734 5.422 213.228 5.422C214.19 5.422 214.931 5.72533 215.451 6.332C215.971 6.93867 216.231 7.74467 216.231 8.75C216.231 9.244 216.158 9.699 216.01 10.115C215.872 10.531 215.668 10.8907 215.399 11.194C215.131 11.4887 214.806 11.7183 214.424 11.883C214.052 12.0477 213.631 12.13 213.163 12.13ZM213.163 11.324C213.787 11.324 214.277 11.0943 214.632 10.635C214.988 10.167 215.165 9.543 215.165 8.763C215.165 8.00033 215.001 7.385 214.671 6.917C214.342 6.449 213.857 6.215 213.215 6.215C212.565 6.215 212.058 6.45333 211.694 6.93C211.339 7.398 211.161 8.009 211.161 8.763C211.161 9.543 211.335 10.167 211.681 10.635C212.037 11.0943 212.531 11.324 213.163 11.324ZM219.41 12.013L216.94 5.565H218.071L219.488 9.647L219.878 11.09H219.93L220.359 9.621L221.75 5.565H222.881L220.385 12.013H219.41ZM226.658 12.13C225.705 12.13 224.964 11.831 224.435 11.233C223.915 10.635 223.66 9.816 223.668 8.776C223.668 7.71867 223.941 6.89533 224.487 6.306C225.033 5.71667 225.748 5.422 226.632 5.422C227.109 5.422 227.521 5.5 227.867 5.656C228.214 5.812 228.496 6.02867 228.712 6.306C228.929 6.57467 229.085 6.89967 229.18 7.281C229.284 7.65367 229.336 8.05667 229.336 8.49C229.336 8.52467 229.336 8.61133 229.336 8.75C229.336 8.88867 229.332 8.96667 229.323 8.984H224.695C224.73 9.77267 224.925 10.362 225.28 10.752C225.644 11.1333 226.121 11.324 226.71 11.324C227.126 11.324 227.477 11.2417 227.763 11.077C228.049 10.9037 228.27 10.6957 228.426 10.453L229.115 10.934C228.881 11.272 228.561 11.558 228.153 11.792C227.755 12.0173 227.256 12.13 226.658 12.13ZM226.593 6.202C226.099 6.202 225.67 6.36667 225.306 6.696C224.951 7.01667 224.752 7.54967 224.708 8.295H228.296V8.204C228.296 7.58867 228.162 7.10333 227.893 6.748C227.625 6.384 227.191 6.202 226.593 6.202ZM189.29 25C189.221 24.9047 189.16 24.7443 189.108 24.519C189.056 24.2937 189.026 23.9643 189.017 23.531C188.879 23.999 188.601 24.3803 188.185 24.675C187.769 24.9697 187.297 25.117 186.768 25.117C186.127 25.1083 185.646 24.9393 185.325 24.61C185.005 24.2807 184.844 23.869 184.844 23.375C184.853 22.7857 185.065 22.3437 185.481 22.049C185.906 21.7543 186.461 21.542 187.145 21.412C187.778 21.282 188.242 21.1737 188.536 21.087C188.831 20.9917 188.983 20.8617 188.991 20.697V20.58C188.991 20.1467 188.874 19.8173 188.64 19.592C188.415 19.3667 188.055 19.254 187.561 19.254C187.154 19.254 186.786 19.3537 186.456 19.553C186.127 19.7437 185.893 19.982 185.754 20.268L184.948 19.839C185.165 19.423 185.516 19.0893 186.001 18.838C186.495 18.578 187.046 18.448 187.652 18.448C188.432 18.448 189.017 18.6343 189.407 19.007C189.806 19.3797 190.005 19.9473 190.005 20.71V22.868C190.005 23.544 190.036 24.0423 190.096 24.363C190.166 24.675 190.244 24.8873 190.33 25H189.29ZM187.028 24.337C187.54 24.337 187.982 24.1723 188.354 23.843C188.736 23.505 188.948 23.0803 188.991 22.569V21.308C188.922 21.4207 188.762 21.5247 188.51 21.62C188.259 21.7153 187.999 21.7933 187.73 21.854C187.15 21.984 186.695 22.1573 186.365 22.374C186.045 22.582 185.884 22.8853 185.884 23.284C185.884 23.6307 185.993 23.895 186.209 24.077C186.435 24.2503 186.708 24.337 187.028 24.337ZM193.601 25.013L191.131 18.565H192.262L193.679 22.647L194.069 24.09H194.121L194.55 22.621L195.941 18.565H197.072L194.576 25.013H193.601ZM200.849 25.13C199.895 25.13 199.154 24.831 198.626 24.233C198.106 23.635 197.85 22.816 197.859 21.776C197.859 20.7187 198.132 19.8953 198.678 19.306C199.224 18.7167 199.939 18.422 200.823 18.422C201.299 18.422 201.711 18.5 202.058 18.656C202.404 18.812 202.686 19.0287 202.903 19.306C203.119 19.5747 203.275 19.8997 203.371 20.281C203.475 20.6537 203.527 21.0567 203.527 21.49C203.527 21.5247 203.527 21.6113 203.527 21.75C203.527 21.8887 203.522 21.9667 203.514 21.984H198.886C198.92 22.7727 199.115 23.362 199.471 23.752C199.835 24.1333 200.311 24.324 200.901 24.324C201.317 24.324 201.668 24.2417 201.954 24.077C202.24 23.9037 202.461 23.6957 202.617 23.453L203.306 23.934C203.072 24.272 202.751 24.558 202.344 24.792C201.945 25.0173 201.447 25.13 200.849 25.13ZM200.784 19.202C200.29 19.202 199.861 19.3667 199.497 19.696C199.141 20.0167 198.942 20.5497 198.899 21.295H202.487V21.204C202.487 20.5887 202.352 20.1033 202.084 19.748C201.815 19.384 201.382 19.202 200.784 19.202ZM205.308 25V18.565H206.283V19.475L206.153 21.503H206.231C206.283 21.1303 206.366 20.7663 206.478 20.411C206.591 20.047 206.743 19.7263 206.933 19.449C207.124 19.163 207.354 18.9333 207.622 18.76C207.9 18.578 208.216 18.487 208.571 18.487H208.779V19.683C208.719 19.6743 208.649 19.67 208.571 19.67C208.502 19.67 208.428 19.67 208.35 19.67C208.047 19.67 207.778 19.7393 207.544 19.878C207.31 20.0167 207.107 20.203 206.933 20.437C206.769 20.671 206.634 20.9527 206.53 21.282C206.426 21.6027 206.353 21.945 206.309 22.309V25H205.308ZM214.034 25C213.964 24.9047 213.904 24.7443 213.852 24.519C213.8 24.2937 213.769 23.9643 213.761 23.531C213.622 23.999 213.345 24.3803 212.929 24.675C212.513 24.9697 212.04 25.117 211.512 25.117C210.87 25.1083 210.389 24.9393 210.069 24.61C209.748 24.2807 209.588 23.869 209.588 23.375C209.596 22.7857 209.809 22.3437 210.225 22.049C210.649 21.7543 211.204 21.542 211.889 21.412C212.521 21.282 212.985 21.1737 213.28 21.087C213.574 20.9917 213.726 20.8617 213.735 20.697V20.58C213.735 20.1467 213.618 19.8173 213.384 19.592C213.158 19.3667 212.799 19.254 212.305 19.254C211.897 19.254 211.529 19.3537 211.2 19.553C210.87 19.7437 210.636 19.982 210.498 20.268L209.692 19.839C209.908 19.423 210.259 19.0893 210.745 18.838C211.239 18.578 211.789 18.448 212.396 18.448C213.176 18.448 213.761 18.6343 214.151 19.007C214.549 19.3797 214.749 19.9473 214.749 20.71V22.868C214.749 23.544 214.779 24.0423 214.84 24.363C214.909 24.675 214.987 24.8873 215.074 25H214.034ZM211.772 24.337C212.283 24.337 212.725 24.1723 213.098 23.843C213.479 23.505 213.691 23.0803 213.735 22.569V21.308C213.665 21.4207 213.505 21.5247 213.254 21.62C213.002 21.7153 212.742 21.7933 212.474 21.854C211.893 21.984 211.438 22.1573 211.109 22.374C210.788 22.582 210.628 22.8853 210.628 23.284C210.628 23.6307 210.736 23.895 210.953 24.077C211.178 24.2503 211.451 24.337 211.772 24.337ZM219.239 23.063C219.109 23.063 218.984 23.0587 218.862 23.05C218.741 23.0327 218.624 23.011 218.511 22.985C218.225 23.0283 218.009 23.115 217.861 23.245C217.714 23.3663 217.64 23.4963 217.64 23.635C217.64 23.7997 217.705 23.9513 217.835 24.09C217.974 24.22 218.273 24.311 218.732 24.363C218.819 24.3717 218.927 24.3847 219.057 24.402C219.196 24.4107 219.335 24.4237 219.473 24.441C219.621 24.4497 219.764 24.4627 219.902 24.48C220.05 24.4887 220.171 24.4973 220.266 24.506C220.942 24.584 221.475 24.7313 221.865 24.948C222.255 25.156 222.45 25.5243 222.45 26.053C222.45 26.6423 222.16 27.132 221.579 27.522C220.999 27.912 220.197 28.107 219.174 28.107H219.044C218.134 28.107 217.45 27.9597 216.99 27.665C216.531 27.3703 216.301 26.9803 216.301 26.495C216.301 26.1483 216.444 25.845 216.73 25.585C217.025 25.3337 217.419 25.1647 217.913 25.078C217.549 25.0087 217.268 24.87 217.068 24.662C216.878 24.454 216.782 24.2157 216.782 23.947C216.782 23.687 216.882 23.4573 217.081 23.258C217.281 23.0587 217.575 22.9113 217.965 22.816C217.549 22.6253 217.229 22.348 217.003 21.984C216.778 21.62 216.665 21.217 216.665 20.775C216.665 20.125 216.895 19.5747 217.354 19.124C217.814 18.6647 218.464 18.435 219.304 18.435C219.79 18.435 220.214 18.5217 220.578 18.695C220.942 18.8597 221.233 19.0807 221.449 19.358C221.536 19.0633 221.692 18.8467 221.917 18.708C222.143 18.5607 222.398 18.487 222.684 18.487C222.728 18.487 222.771 18.4913 222.814 18.5C222.858 18.5087 222.892 18.5173 222.918 18.526V19.514C222.892 19.5053 222.853 19.4967 222.801 19.488C222.749 19.4707 222.689 19.462 222.619 19.462C222.472 19.462 222.312 19.4837 222.138 19.527C221.965 19.5703 221.822 19.6613 221.709 19.8C221.77 19.9387 221.818 20.086 221.852 20.242C221.887 20.398 221.904 20.5583 221.904 20.723C221.904 21.4163 221.666 21.9797 221.189 22.413C220.713 22.8463 220.063 23.063 219.239 23.063ZM219.291 22.348C219.837 22.348 220.245 22.1963 220.513 21.893C220.791 21.581 220.929 21.1953 220.929 20.736C220.929 20.294 220.795 19.917 220.526 19.605C220.258 19.293 219.846 19.137 219.291 19.137C218.728 19.137 218.316 19.3017 218.056 19.631C217.796 19.9517 217.666 20.3243 217.666 20.749C217.666 21.1997 217.796 21.581 218.056 21.893C218.325 22.1963 218.737 22.348 219.291 22.348ZM219.967 25.364C219.768 25.338 219.512 25.3077 219.2 25.273C218.897 25.247 218.624 25.2297 218.381 25.221C218.009 25.2903 217.723 25.416 217.523 25.598C217.324 25.7887 217.229 26.0053 217.237 26.248C217.237 26.5947 217.402 26.8633 217.731 27.054C218.069 27.2533 218.55 27.353 219.174 27.353H219.317C220.106 27.353 220.669 27.2273 221.007 26.976C221.345 26.7333 221.514 26.4517 221.514 26.131C221.514 25.8363 221.367 25.6457 221.072 25.559C220.778 25.4723 220.409 25.4073 219.967 25.364ZM226.658 25.13C225.705 25.13 224.964 24.831 224.435 24.233C223.915 23.635 223.66 22.816 223.668 21.776C223.668 20.7187 223.941 19.8953 224.487 19.306C225.033 18.7167 225.748 18.422 226.632 18.422C227.109 18.422 227.521 18.5 227.867 18.656C228.214 18.812 228.496 19.0287 228.712 19.306C228.929 19.5747 229.085 19.8997 229.18 20.281C229.284 20.6537 229.336 21.0567 229.336 21.49C229.336 21.5247 229.336 21.6113 229.336 21.75C229.336 21.8887 229.332 21.9667 229.323 21.984H224.695C224.73 22.7727 224.925 23.362 225.28 23.752C225.644 24.1333 226.121 24.324 226.71 24.324C227.126 24.324 227.477 24.2417 227.763 24.077C228.049 23.9037 228.27 23.6957 228.426 23.453L229.115 23.934C228.881 24.272 228.561 24.558 228.153 24.792C227.755 25.0173 227.256 25.13 226.658 25.13ZM226.593 19.202C226.099 19.202 225.67 19.3667 225.306 19.696C224.951 20.0167 224.752 20.5497 224.708 21.295H228.296V21.204C228.296 20.5887 228.162 20.1033 227.893 19.748C227.625 19.384 227.191 19.202 226.593 19.202Z" fill="#606B44"/>
<path d="M6.613 12L4.195 3.459H5.287L6.756 9.14L7.133 11.155H7.198L7.575 9.14L9.122 3.459H10.227L11.787 9.14L12.164 11.155H12.229L12.619 9.14L14.075 3.459H15.141L12.736 12H11.618L9.98 6.007L9.655 4.252H9.616L9.291 6.007L7.705 12H6.613ZM18.914 12.13C17.9607 12.13 17.2197 11.831 16.691 11.233C16.171 10.635 15.9154 9.816 15.924 8.776C15.924 7.71867 16.197 6.89533 16.743 6.306C17.289 5.71667 18.004 5.422 18.888 5.422C19.3647 5.422 19.7764 5.5 20.123 5.656C20.4697 5.812 20.7514 6.02867 20.968 6.306C21.1847 6.57467 21.3407 6.89967 21.436 7.281C21.54 7.65367 21.592 8.05667 21.592 8.49C21.592 8.52467 21.592 8.61133 21.592 8.75C21.592 8.88867 21.5877 8.96667 21.579 8.984H16.951C16.9857 9.77267 17.1807 10.362 17.536 10.752C17.9 11.1333 18.3767 11.324 18.966 11.324C19.382 11.324 19.733 11.2417 20.019 11.077C20.305 10.9037 20.526 10.6957 20.682 10.453L21.371 10.934C21.137 11.272 20.8164 11.558 20.409 11.792C20.0104 12.0173 19.512 12.13 18.914 12.13ZM18.849 6.202C18.355 6.202 17.926 6.36667 17.562 6.696C17.2067 7.01667 17.0074 7.54967 16.964 8.295H20.552V8.204C20.552 7.58867 20.4177 7.10333 20.149 6.748C19.8804 6.384 19.447 6.202 18.849 6.202ZM23.4259 12V2.51H24.4399V12H23.4259ZM26.7901 12V2.51H27.8041V12H26.7901ZM36.0438 12.104C35.4978 12.104 35.0168 11.9437 34.6008 11.623C34.1934 11.3023 33.9074 10.8863 33.7428 10.375L33.7558 12H32.8198V2.51H33.8208V5.864L33.7688 7.034H33.8468C34.0028 6.592 34.2801 6.215 34.6788 5.903C35.0861 5.58233 35.5671 5.422 36.1218 5.422C36.9624 5.422 37.5951 5.71233 38.0198 6.293C38.4531 6.865 38.6698 7.64933 38.6698 8.646C38.6698 9.72933 38.4184 10.5787 37.9158 11.194C37.4218 11.8007 36.7978 12.104 36.0438 12.104ZM35.7578 11.298C36.3124 11.298 36.7588 11.0597 37.0968 10.583C37.4348 10.1063 37.6038 9.48667 37.6038 8.724C37.6038 7.93533 37.4564 7.32 37.1618 6.878C36.8671 6.436 36.4078 6.215 35.7838 6.215C35.4804 6.215 35.2031 6.28867 34.9518 6.436C34.7004 6.58333 34.4881 6.774 34.3148 7.008C34.1414 7.23333 34.0071 7.49333 33.9118 7.788C33.8164 8.08267 33.7688 8.373 33.7688 8.659V8.997C33.7688 9.699 33.9508 10.258 34.3148 10.674C34.6788 11.09 35.1598 11.298 35.7578 11.298ZM42.9844 12.13C42.031 12.13 41.29 11.831 40.7614 11.233C40.2414 10.635 39.9857 9.816 39.9944 8.776C39.9944 7.71867 40.2674 6.89533 40.8134 6.306C41.3594 5.71667 42.0744 5.422 42.9584 5.422C43.435 5.422 43.8467 5.5 44.1934 5.656C44.54 5.812 44.8217 6.02867 45.0384 6.306C45.255 6.57467 45.411 6.89967 45.5064 7.281C45.6104 7.65367 45.6624 8.05667 45.6624 8.49C45.6624 8.52467 45.6624 8.61133 45.6624 8.75C45.6624 8.88867 45.658 8.96667 45.6494 8.984H41.0214C41.056 9.77267 41.251 10.362 41.6064 10.752C41.9704 11.1333 42.447 11.324 43.0364 11.324C43.4524 11.324 43.8034 11.2417 44.0894 11.077C44.3754 10.9037 44.5964 10.6957 44.7524 10.453L45.4414 10.934C45.2074 11.272 44.8867 11.558 44.4794 11.792C44.0807 12.0173 43.5824 12.13 42.9844 12.13ZM42.9194 6.202C42.4254 6.202 41.9964 6.36667 41.6324 6.696C41.277 7.01667 41.0777 7.54967 41.0344 8.295H44.6224V8.204C44.6224 7.58867 44.488 7.10333 44.2194 6.748C43.9507 6.384 43.5174 6.202 42.9194 6.202ZM47.4962 12V2.51H48.5102V12H47.4962ZM53.3694 12.13C52.3901 12.13 51.6318 11.831 51.0944 11.233C50.5658 10.6263 50.3014 9.80733 50.3014 8.776C50.3014 8.308 50.3708 7.87033 50.5094 7.463C50.6568 7.047 50.8604 6.69167 51.1204 6.397C51.3891 6.09367 51.7184 5.85533 52.1084 5.682C52.4984 5.50867 52.9404 5.422 53.4344 5.422C54.3964 5.422 55.1374 5.72533 55.6574 6.332C56.1774 6.93867 56.4374 7.74467 56.4374 8.75C56.4374 9.244 56.3638 9.699 56.2164 10.115C56.0778 10.531 55.8741 10.8907 55.6054 11.194C55.3368 11.4887 55.0118 11.7183 54.6304 11.883C54.2578 12.0477 53.8374 12.13 53.3694 12.13ZM53.3694 11.324C53.9934 11.324 54.4831 11.0943 54.8384 10.635C55.1938 10.167 55.3714 9.543 55.3714 8.763C55.3714 8.00033 55.2068 7.385 54.8774 6.917C54.5481 6.449 54.0628 6.215 53.4214 6.215C52.7714 6.215 52.2644 6.45333 51.9004 6.93C51.5451 7.398 51.3674 8.009 51.3674 8.763C51.3674 9.543 51.5408 10.167 51.8874 10.635C52.2428 11.0943 52.7368 11.324 53.3694 11.324ZM59.1727 12.013L57.3267 5.565H58.4057L59.3807 9.387L59.7057 11.064H59.7577L60.1867 9.387L61.3827 5.565H62.4227L63.5147 9.387L63.9437 11.077H63.9827L64.3337 9.387L65.3607 5.565H66.4007L64.4637 12.013H63.3977L62.2017 7.931L61.8767 6.501H61.8377L61.5127 7.931L60.2127 12.013H59.1727ZM9.057 25C8.98767 24.9047 8.927 24.7443 8.875 24.519C8.823 24.2937 8.79267 23.9643 8.784 23.531C8.64533 23.999 8.368 24.3803 7.952 24.675C7.536 24.9697 7.06367 25.117 6.535 25.117C5.89367 25.1083 5.41267 24.9393 5.092 24.61C4.77133 24.2807 4.611 23.869 4.611 23.375C4.61967 22.7857 4.832 22.3437 5.248 22.049C5.67267 21.7543 6.22733 21.542 6.912 21.412C7.54467 21.282 8.00833 21.1737 8.303 21.087C8.59767 20.9917 8.74933 20.8617 8.758 20.697V20.58C8.758 20.1467 8.641 19.8173 8.407 19.592C8.18167 19.3667 7.822 19.254 7.328 19.254C6.92067 19.254 6.55233 19.3537 6.223 19.553C5.89367 19.7437 5.65967 19.982 5.521 20.268L4.715 19.839C4.93167 19.423 5.28267 19.0893 5.768 18.838C6.262 18.578 6.81233 18.448 7.419 18.448C8.199 18.448 8.784 18.6343 9.174 19.007C9.57267 19.3797 9.772 19.9473 9.772 20.71V22.868C9.772 23.544 9.80233 24.0423 9.863 24.363C9.93233 24.675 10.0103 24.8873 10.097 25H9.057ZM6.795 24.337C7.30633 24.337 7.74833 24.1723 8.121 23.843C8.50233 23.505 8.71467 23.0803 8.758 22.569V21.308C8.68867 21.4207 8.52833 21.5247 8.277 21.62C8.02567 21.7153 7.76567 21.7933 7.497 21.854C6.91633 21.984 6.46133 22.1573 6.132 22.374C5.81133 22.582 5.651 22.8853 5.651 23.284C5.651 23.6307 5.75933 23.895 5.976 24.077C6.20133 24.2503 6.47433 24.337 6.795 24.337ZM13.3675 25.013L10.8975 18.565H12.0285L13.4455 22.647L13.8355 24.09H13.8875L14.3165 22.621L15.7075 18.565H16.8385L14.3425 25.013H13.3675ZM20.6152 25.13C19.6619 25.13 18.9209 24.831 18.3922 24.233C17.8722 23.635 17.6166 22.816 17.6252 21.776C17.6252 20.7187 17.8982 19.8953 18.4442 19.306C18.9902 18.7167 19.7052 18.422 20.5892 18.422C21.0659 18.422 21.4776 18.5 21.8242 18.656C22.1709 18.812 22.4526 19.0287 22.6692 19.306C22.8859 19.5747 23.0419 19.8997 23.1372 20.281C23.2412 20.6537 23.2932 21.0567 23.2932 21.49C23.2932 21.5247 23.2932 21.6113 23.2932 21.75C23.2932 21.8887 23.2889 21.9667 23.2802 21.984H18.6522C18.6869 22.7727 18.8819 23.362 19.2372 23.752C19.6012 24.1333 20.0779 24.324 20.6672 24.324C21.0832 24.324 21.4342 24.2417 21.7202 24.077C22.0062 23.9037 22.2272 23.6957 22.3832 23.453L23.0722 23.934C22.8382 24.272 22.5176 24.558 22.1102 24.792C21.7116 25.0173 21.2132 25.13 20.6152 25.13ZM20.5502 19.202C20.0562 19.202 19.6272 19.3667 19.2632 19.696C18.9079 20.0167 18.7086 20.5497 18.6652 21.295H22.2532V21.204C22.2532 20.5887 22.1189 20.1033 21.8502 19.748C21.5816 19.384 21.1482 19.202 20.5502 19.202ZM25.075 25V18.565H26.05V19.475L25.92 21.503H25.998C26.05 21.1303 26.1324 20.7663 26.245 20.411C26.3577 20.047 26.5094 19.7263 26.7 19.449C26.8907 19.163 27.1204 18.9333 27.389 18.76C27.6664 18.578 27.9827 18.487 28.338 18.487H28.546V19.683C28.4854 19.6743 28.416 19.67 28.338 19.67C28.2687 19.67 28.195 19.67 28.117 19.67C27.8137 19.67 27.545 19.7393 27.311 19.878C27.077 20.0167 26.8734 20.203 26.7 20.437C26.5354 20.671 26.401 20.9527 26.297 21.282C26.193 21.6027 26.1194 21.945 26.076 22.309V25H25.075ZM33.8002 25C33.7308 24.9047 33.6702 24.7443 33.6182 24.519C33.5662 24.2937 33.5358 23.9643 33.5272 23.531C33.3885 23.999 33.1112 24.3803 32.6952 24.675C32.2792 24.9697 31.8068 25.117 31.2782 25.117C30.6368 25.1083 30.1558 24.9393 29.8352 24.61C29.5145 24.2807 29.3542 23.869 29.3542 23.375C29.3628 22.7857 29.5752 22.3437 29.9912 22.049C30.4158 21.7543 30.9705 21.542 31.6552 21.412C32.2878 21.282 32.7515 21.1737 33.0462 21.087C33.3408 20.9917 33.4925 20.8617 33.5012 20.697V20.58C33.5012 20.1467 33.3842 19.8173 33.1502 19.592C32.9248 19.3667 32.5652 19.254 32.0712 19.254C31.6638 19.254 31.2955 19.3537 30.9662 19.553C30.6368 19.7437 30.4028 19.982 30.2642 20.268L29.4582 19.839C29.6748 19.423 30.0258 19.0893 30.5112 18.838C31.0052 18.578 31.5555 18.448 32.1622 18.448C32.9422 18.448 33.5272 18.6343 33.9172 19.007C34.3158 19.3797 34.5152 19.9473 34.5152 20.71V22.868C34.5152 23.544 34.5455 24.0423 34.6062 24.363C34.6755 24.675 34.7535 24.8873 34.8402 25H33.8002ZM31.5382 24.337C32.0495 24.337 32.4915 24.1723 32.8642 23.843C33.2455 23.505 33.4578 23.0803 33.5012 22.569V21.308C33.4318 21.4207 33.2715 21.5247 33.0202 21.62C32.7688 21.7153 32.5088 21.7933 32.2402 21.854C31.6595 21.984 31.2045 22.1573 30.8752 22.374C30.5545 22.582 30.3942 22.8853 30.3942 23.284C30.3942 23.6307 30.5025 23.895 30.7192 24.077C30.9445 24.2503 31.2175 24.337 31.5382 24.337ZM39.0059 23.063C38.8759 23.063 38.7502 23.0587 38.6289 23.05C38.5075 23.0327 38.3905 23.011 38.2779 22.985C37.9919 23.0283 37.7752 23.115 37.6279 23.245C37.4805 23.3663 37.4069 23.4963 37.4069 23.635C37.4069 23.7997 37.4719 23.9513 37.6019 24.09C37.7405 24.22 38.0395 24.311 38.4989 24.363C38.5855 24.3717 38.6939 24.3847 38.8239 24.402C38.9625 24.4107 39.1012 24.4237 39.2399 24.441C39.3872 24.4497 39.5302 24.4627 39.6689 24.48C39.8162 24.4887 39.9375 24.4973 40.0329 24.506C40.7089 24.584 41.2419 24.7313 41.6319 24.948C42.0219 25.156 42.2169 25.5243 42.2169 26.053C42.2169 26.6423 41.9265 27.132 41.3459 27.522C40.7652 27.912 39.9635 28.107 38.9409 28.107H38.8109C37.9009 28.107 37.2162 27.9597 36.7569 27.665C36.2975 27.3703 36.0679 26.9803 36.0679 26.495C36.0679 26.1483 36.2109 25.845 36.4969 25.585C36.7915 25.3337 37.1859 25.1647 37.6799 25.078C37.3159 25.0087 37.0342 24.87 36.8349 24.662C36.6442 24.454 36.5489 24.2157 36.5489 23.947C36.5489 23.687 36.6485 23.4573 36.8479 23.258C37.0472 23.0587 37.3419 22.9113 37.7319 22.816C37.3159 22.6253 36.9952 22.348 36.7699 21.984C36.5445 21.62 36.4319 21.217 36.4319 20.775C36.4319 20.125 36.6615 19.5747 37.1209 19.124C37.5802 18.6647 38.2302 18.435 39.0709 18.435C39.5562 18.435 39.9809 18.5217 40.3449 18.695C40.7089 18.8597 40.9992 19.0807 41.2159 19.358C41.3025 19.0633 41.4585 18.8467 41.6839 18.708C41.9092 18.5607 42.1649 18.487 42.4509 18.487C42.4942 18.487 42.5375 18.4913 42.5809 18.5C42.6242 18.5087 42.6589 18.5173 42.6849 18.526V19.514C42.6589 19.5053 42.6199 19.4967 42.5679 19.488C42.5159 19.4707 42.4552 19.462 42.3859 19.462C42.2385 19.462 42.0782 19.4837 41.9049 19.527C41.7315 19.5703 41.5885 19.6613 41.4759 19.8C41.5365 19.9387 41.5842 20.086 41.6189 20.242C41.6535 20.398 41.6709 20.5583 41.6709 20.723C41.6709 21.4163 41.4325 21.9797 40.9559 22.413C40.4792 22.8463 39.8292 23.063 39.0059 23.063ZM39.0579 22.348C39.6039 22.348 40.0112 22.1963 40.2799 21.893C40.5572 21.581 40.6959 21.1953 40.6959 20.736C40.6959 20.294 40.5615 19.917 40.2929 19.605C40.0242 19.293 39.6125 19.137 39.0579 19.137C38.4945 19.137 38.0829 19.3017 37.8229 19.631C37.5629 19.9517 37.4329 20.3243 37.4329 20.749C37.4329 21.1997 37.5629 21.581 37.8229 21.893C38.0915 22.1963 38.5032 22.348 39.0579 22.348ZM39.7339 25.364C39.5345 25.338 39.2789 25.3077 38.9669 25.273C38.6635 25.247 38.3905 25.2297 38.1479 25.221C37.7752 25.2903 37.4892 25.416 37.2899 25.598C37.0905 25.7887 36.9952 26.0053 37.0039 26.248C37.0039 26.5947 37.1685 26.8633 37.4979 27.054C37.8359 27.2533 38.3169 27.353 38.9409 27.353H39.0839C39.8725 27.353 40.4359 27.2273 40.7739 26.976C41.1119 26.7333 41.2809 26.4517 41.2809 26.131C41.2809 25.8363 41.1335 25.6457 40.8389 25.559C40.5442 25.4723 40.1759 25.4073 39.7339 25.364ZM46.4248 25.13C45.4715 25.13 44.7305 24.831 44.2018 24.233C43.6818 23.635 43.4261 22.816 43.4348 21.776C43.4348 20.7187 43.7078 19.8953 44.2538 19.306C44.7998 18.7167 45.5148 18.422 46.3988 18.422C46.8755 18.422 47.2871 18.5 47.6338 18.656C47.9805 18.812 48.2621 19.0287 48.4788 19.306C48.6955 19.5747 48.8515 19.8997 48.9468 20.281C49.0508 20.6537 49.1028 21.0567 49.1028 21.49C49.1028 21.5247 49.1028 21.6113 49.1028 21.75C49.1028 21.8887 49.0985 21.9667 49.0898 21.984H44.4618C44.4965 22.7727 44.6915 23.362 45.0468 23.752C45.4108 24.1333 45.8875 24.324 46.4768 24.324C46.8928 24.324 47.2438 24.2417 47.5298 24.077C47.8158 23.9037 48.0368 23.6957 48.1928 23.453L48.8818 23.934C48.6478 24.272 48.3271 24.558 47.9198 24.792C47.5211 25.0173 47.0228 25.13 46.4248 25.13ZM46.3598 19.202C45.8658 19.202 45.4368 19.3667 45.0728 19.696C44.7175 20.0167 44.5181 20.5497 44.4748 21.295H48.0628V21.204C48.0628 20.5887 47.9285 20.1033 47.6598 19.748C47.3911 19.384 46.9578 19.202 46.3598 19.202Z" fill="#606B44"/>
</svg>
