<svg width="214" height="47" viewBox="0 0 214 47" fill="none" xmlns="http://www.w3.org/2000/svg">
<path d="M204.923 46.2943C209.871 46.3285 215.118 41.7915 213.791 35.8079L206.926 7.165C206.044 3.05604 202.577 0.0342413 198.212 0H15.6968C11.545 0.0342413 7.89834 3.05604 6.99095 7.165L0.194043 35.8079C-1.08145 41.7915 4.16604 46.32 9.05399 46.2943H204.923Z" fill="#002F6C"/>
<path fill-rule="evenodd" clip-rule="evenodd" d="M204.922 41.4323C207.113 41.4323 209.253 39.1382 208.919 36.8526L202.054 8.4237C201.78 6.42914 200.274 4.99957 198.211 5.02525H15.6956C13.8466 5.00813 12.1602 6.42914 11.8521 8.4237L5.05515 36.8526C4.78122 39.1296 6.82714 41.4323 9.04426 41.4323H204.922ZM204.922 43.6495C208.457 43.658 212.275 40.3794 211.06 36.1763L204.485 7.68751C203.732 4.74276 201.249 2.69684 198.211 2.6626H15.6956C12.7851 2.69684 10.2085 4.74276 9.56644 7.68751L3.00067 36.1677C1.85358 40.3709 5.57733 43.658 9.05282 43.6409H204.922V43.6495ZM70.6359 13.8681C67.4343 13.8681 65.123 15.5031 63.9246 17.9856L63.6934 10.6836H62.8288C62.2724 12.0704 61.6732 12.1474 60.3977 11.7451C59.807 11.5482 59.088 11.2743 58.2319 11.0432C57.3673 10.8035 56.3487 10.6237 55.1245 10.6237C47.9681 10.6066 42.9517 15.9654 42.9689 23.1817C42.9517 31.1086 48.2506 35.6541 55.193 35.6712C58.66 35.6456 61.853 34.0277 64.0016 31.3055L63.3168 30.4409C60.8685 32.9148 58.9852 33.8564 55.4755 33.8736C49.7658 33.865 47.2062 28.4977 47.2234 23.4728C47.2062 16.9926 49.7829 11.9934 55.2529 12.2587C61.2537 12.5583 62.8716 16.9926 62.923 22.5825C62.9059 26.9911 66.0304 30.9031 70.6273 30.8689C75.5923 30.9031 78.6141 26.5973 78.6141 21.8463C78.6227 17.1552 75.3697 13.9023 70.6359 13.8681ZM75.0787 23.9778C74.8047 27.0767 73.2896 29.9016 70.6359 29.6619C67.3829 29.3708 66.0304 25.3475 66.467 20.2969C66.758 17.1638 68.3074 14.8782 70.8413 15.0665C74.7534 15.4432 75.3697 20.7078 75.0787 23.9778ZM105.476 29.893V30.5778H97.9176V29.893C99.5013 29.7304 100.109 29.2424 100.109 27.6074V20.2284C100.143 16.8128 99.5783 15.9568 97.4126 15.9568C95.8546 15.9568 94.5449 16.7871 93.7744 18.1054V27.6074C93.7488 29.251 94.3737 29.7389 95.9659 29.893V30.5778H88.3301V29.893C89.948 29.7304 90.5729 29.2596 90.6071 27.6074L90.6157 20.0743C90.6157 18.2167 90.4616 15.9568 88.2017 15.9568C86.7806 15.9568 85.0515 16.7871 84.1869 18.0284V27.6074C84.2125 29.2596 84.846 29.7389 86.4639 29.893V30.5778H78.811V29.893L78.8966 29.8759C80.5487 29.7218 81.0367 29.114 81.011 27.6074V18.8159C81.1394 16.8728 80.6686 16.5303 78.811 16.5389V15.7257L84.1783 13.8167V16.2992C84.1954 16.6159 84.2382 16.6245 84.4865 16.4276C84.7604 16.1708 84.9915 15.8626 85.2997 15.6486C86.5581 14.6727 88.0219 13.8681 89.6655 13.8681C91.4289 13.8681 92.8414 15.1607 93.2951 16.8728C94.6048 15.3576 96.762 13.8681 98.7394 13.8681C103.045 13.8681 103.285 17.6089 103.285 20.8191V27.6074C103.276 29.2424 103.884 29.7389 105.476 29.893ZM118.95 24.4829C117.88 26.3833 115.971 28.3179 113.592 28.335C109.731 28.3179 108.053 24.0035 107.976 20.6136H118.959C118.865 16.8299 116.656 13.8766 112.65 13.8766C108.233 13.8766 105.382 17.6089 105.382 22.7366C105.382 27.0681 108.045 30.9117 112.196 30.8775C115.911 30.9117 118.599 27.8813 119.712 24.6712L118.95 24.4829ZM111.897 15.3062C114.105 15.2891 115.055 17.2237 115.175 19.2525H108.122C108.43 17.0611 109.517 15.3062 111.897 15.3062ZM167.659 30.8175L159.081 10.6066H158.234L152.498 24.3031C151.497 26.7086 149.956 28.1724 147.242 28.1724C143.664 28.2494 141.824 24.5599 141.824 21.2556C141.841 18.2938 143.313 15.0836 146.292 15.058C148.133 15.0751 148.937 16.0852 148.912 17.472C148.937 18.3194 149.75 19.1498 150.607 19.1156C151.48 19.1498 152.293 18.3794 152.301 17.472C152.139 14.9467 148.963 13.8595 146.943 13.8595C141.618 13.8595 138.939 18.0198 138.964 22.7195C138.939 27.2308 141.764 30.8946 145.633 30.8603C147.978 30.8689 149.673 29.7903 150.949 28.2409C150.392 29.602 149.793 31.1771 149.04 32.4098C148.441 33.4028 147.73 34.1903 146.498 34.3101V35.1319H153.62V34.3016C152.781 34.2845 151.231 34.1475 151.206 32.8292C151.231 31.5109 152.618 28.7802 153.08 27.3763H162.249L163.481 30.3553C164.637 33.0946 165.228 34.1047 161.863 34.3016V35.1234H171.031L170.937 34.293C169.028 34.3958 168.301 32.23 167.659 30.8175ZM153.808 25.7498L157.72 16.1023L161.684 25.7498H153.808ZM139.726 29.893V30.5778H131.209V29.893L131.277 29.8759C133.392 29.7218 133.88 29.0969 133.914 27.6074V18.8159C133.991 16.4019 132.852 16.5988 131.2 17.4977C130.849 17.7288 130.378 17.7545 129.882 17.6432C129.514 17.5918 129.308 17.4121 129.094 17.1467L128.906 16.907C128.666 16.5988 128.358 16.2906 127.545 16.2393C126.877 16.2393 125.431 17.9856 125.448 18.97V27.6074C125.439 29.465 126.355 29.7561 128.076 29.893V30.5778H119.644V29.893C121.775 29.7218 122.263 29.0969 122.28 27.6074V19.6977C122.272 17.1638 122.357 15.7513 119.644 16.5646V15.7941L125.448 13.8082V16.8728C126.21 15.6401 127.673 13.8595 129.394 13.8595C130.55 13.8595 131.56 14.5101 131.748 15.6401L137.013 13.5085L137.081 27.5903C137.047 29.4736 137.997 29.7561 139.726 29.893Z" fill="white"/>
</svg>
