<?xml version="1.0" encoding="UTF-8"?>
<svg width="232px" height="48px" viewBox="0 0 232 48" version="1.1" xmlns="http://www.w3.org/2000/svg" xmlns:xlink="http://www.w3.org/1999/xlink">
    <!-- Generator: Sketch 61.2 (89653) - https://sketch.com -->
    <title>ComericaBank-Logo</title>
    <desc>Created with Sketch.</desc>
    <g id="Page-1" stroke="none" stroke-width="1" fill="none" fill-rule="evenodd">
        <g id="ComericaBank-Logo-RGB-DS" transform="translate(-6.000000, -4.000000)">
            <g id="ComericaBank-Logo" transform="translate(5.984186, 4.063000)">
                <path d="M211.139814,47.201 L211.194814,47.201 C213.827814,47.201 216.517814,45.884 218.224814,43.763 C219.766814,41.828 220.330814,39.428 219.791814,36.996 L212.713814,7.501 C211.848814,3.405 208.353814,0.527 204.221814,0.497 L16.1738141,0.497 C12.1398141,0.527 8.56881411,3.471 7.69181411,7.493 L0.679814106,37.008 C0.163814106,39.44 0.741814106,41.851 2.31181411,43.791 C4.01781411,45.889 6.68381411,47.201 9.27381411,47.201 L211.139814,47.201" id="Fill-2" fill="#4F514E"></path>
                <path d="M211.139814,47.6961634 C216.234814,47.728 221.641814,43.057 220.277814,36.896 L213.202814,7.385 C212.298814,3.149 208.723814,0.036 204.221814,0 L16.1738141,0 C11.8958141,0.036 8.13781411,3.149 7.20381411,7.385 L0.198814106,36.896 C-1.11118589,43.057 4.29381411,47.728 9.32881411,47.6961634 L211.139814,47.6961634" id="Fill-3" fill="#112859"></path>
                <path d="M112.550814,28.715 C114.944814,28.715 116.296814,27.427 117.181814,25.305 L122.235814,13.233 L122.983814,13.233 L130.542814,31.046 C131.108814,32.291 131.748814,34.195 133.435814,34.13 L133.519814,34.86 L125.438814,34.86 L125.438814,34.133 C128.401814,33.957 127.885814,33.068 126.862814,30.652 L125.779814,28.029 L117.701814,28.029 C117.290814,29.262 116.068814,31.671 116.045814,32.834 C116.068814,33.994 117.430814,34.115 118.170814,34.13 L118.170814,34.86 L111.890814,34.86 L111.890814,34.133 C112.978814,34.026 113.606814,33.332 114.132814,32.457 C114.797814,31.372 115.327814,29.984 115.816814,28.781 C114.692814,30.147 113.198814,31.101 111.127814,31.093 C107.719814,31.123 105.232814,27.894 105.252688,23.915 C105.232814,19.775 107.594814,16.103 112.286814,16.107 C114.067814,16.107 116.863814,17.065 117.010814,19.291 C117.003814,20.095 116.282814,20.768 115.514814,20.742 C114.761814,20.768 114.043814,20.036 114.024814,19.291 C114.043814,18.07 113.333814,17.181 111.713814,17.163 C109.087814,17.181 107.788814,20.009 107.776814,22.622 C107.776814,25.531 109.393814,28.781 112.550814,28.715 Z M125.271814,26.574 L121.781814,18.07 L118.337814,26.574 L125.271814,26.574 Z M52.3128141,30.215 C53.7698141,30.076 54.1978141,29.542 54.1738141,28.214 L54.1738141,20.466 C54.2868141,18.752 53.8678141,18.453 52.2388141,18.461 L52.2388141,17.747 L56.9698141,16.065 L56.9698141,18.251 C56.9818141,18.53 57.0248141,18.538 57.2378141,18.36 C57.4818141,18.135 57.6798141,17.863 57.9518141,17.674 C59.0598141,16.816 60.3518141,16.103 61.7988141,16.107 C63.3538141,16.107 64.5988141,17.246 64.9948141,18.752 C66.1508141,17.415 68.0508141,16.103 69.7958141,16.107 C73.5898141,16.107 73.8018141,19.404 73.8018141,22.23 L73.8018141,28.214 C73.8018141,29.659 74.3368141,30.091 75.7378141,30.233 L75.7378141,30.833 L69.0778141,30.833 L69.0778141,30.233 C70.4708141,30.091 71.0098141,29.659 71.0098141,28.214 L71.0098141,21.711 C71.0368141,18.699 70.5448141,17.949 68.6318141,17.949 C67.2588141,17.949 66.1078141,18.682 65.4218141,19.843 L65.4218141,28.214 C65.4018141,29.666 65.9528141,30.091 67.3558141,30.233 L67.3558141,30.833 L60.6238141,30.833 L60.6238141,30.233 C62.0478141,30.091 62.5978141,29.677 62.6288141,28.214 L62.6338141,21.575 C62.6338141,19.938 62.4968141,17.949 60.5078141,17.949 C59.2548141,17.949 57.7348141,18.682 56.9698141,19.775 L56.9698141,28.214 C56.9938141,29.672 57.5518141,30.091 58.9788141,30.233 L58.9788141,30.833 L52.2388141,30.833 L52.2388141,30.233 L52.3128141,30.215 Z M82.0518141,16.1069964 C85.5888141,16.1069964 87.5328141,18.713 87.6138141,22.044 L77.9368141,22.044 C78.0058141,25.038 79.4838141,28.839 82.8888141,28.854 C84.9878141,28.839 86.6708141,27.132 87.6138141,25.461 L88.2768141,25.625 C87.2998141,28.449 84.9308141,31.123 81.6518141,31.093 C77.9988141,31.123 75.6528141,27.731 75.6488141,23.915 C75.6488141,19.392 78.1578141,16.103 82.0518141,16.1069964 Z M81.3998141,17.371 C79.3018141,17.371 78.3448141,18.924 78.0688141,20.851 L84.2858141,20.851 C84.1808141,19.063 83.3468141,17.353 81.3998141,17.371 Z M45.2108141,17.163 C42.9768141,16.995 41.6198141,19.007 41.3598141,21.773 C40.9718141,26.222 42.1628141,29.771 45.0328141,30.026 C47.3718141,30.236 48.7128141,27.746 48.9508141,25.014 C49.2018141,22.135 48.6628141,17.492 45.2108141,17.163 Z M38.1478141,13.295 L38.9088141,13.295 L39.1148141,19.73 C40.1778141,17.545 42.2128141,16.103 45.0328141,16.103 C49.2018141,16.134 52.0728141,19.001 52.0728141,23.138 C52.0728141,27.328 49.4078141,31.123 45.0328141,31.093 C40.9878141,31.123 38.2298141,27.671 38.2458141,23.787 C38.1988141,18.861 36.7678141,14.948 31.4818141,14.687 C26.6648141,14.447 24.3928141,18.856 24.4078141,24.566 C24.3928141,28.991 26.6488141,33.722 31.6788141,33.731 C34.7708141,33.722 36.4308141,32.887 38.5868141,30.708 L39.1878141,31.473 C37.2958141,33.877 34.4798141,35.304 31.4228141,35.325 C25.3028141,35.304 20.6298141,31.298 20.6457708,24.314 C20.6298141,17.949 25.0478141,13.233 31.3568141,13.2449772 C32.4328141,13.2449772 33.3348141,13.404 34.0958141,13.613 C34.8558141,13.815 35.4878141,14.058 36.0078141,14.234 C37.1288141,14.583 37.6558141,14.521 38.1478141,13.295 Z M98.4808141,30.215 C100.346814,30.076 100.776814,29.53 100.803814,28.214 L100.803814,20.466 C100.873814,18.341 99.8698141,18.508 98.4108141,19.307 C98.0998141,19.512 97.6818141,19.532 97.2508141,19.438 C96.9258141,19.392 96.7438141,19.236 96.5578141,19.001 L96.3938141,18.788 C96.1808141,18.515 95.9088141,18.245 95.1918141,18.198 C94.6058141,18.198 93.3308141,19.737 93.3418141,20.602 L93.3418141,28.214 C93.3308141,29.852 94.1438141,30.109 95.6608141,30.228 L95.6608141,30.833 L88.2258141,30.833 L88.2258141,30.228 C90.1028141,30.076 90.5348141,29.53 90.5448141,28.214 L90.5448141,21.246 C90.5348141,19.016 90.6118141,17.771 88.2258141,18.488 L88.2258141,17.812 L93.3418141,16.065 L93.3418141,18.764 C94.0128141,17.674 95.3038141,16.103 96.8158141,16.107 C97.8328141,16.107 98.7288141,16.682 98.8918141,17.678 L103.529814,15.801 L103.591814,28.214 C103.560814,29.856 104.398814,30.109 105.922814,30.228 L105.922814,30.833 L98.4188141,30.833 L98.4188141,30.228 L98.4808141,30.215 Z M140.921814,29.584 C141.204814,29.352 141.367814,28.77 141.367814,27.796 L141.367814,16.053 C141.367814,15.087 141.204814,14.505 140.908814,14.268 C140.464814,13.862 139.225814,13.807 138.796814,13.788 L138.796814,13.148 L146.390814,13.148 C148.538814,13.148 150.256814,13.48 151.532814,14.176 C152.827814,14.87 153.468814,16.065 153.468814,17.744 C153.468814,19.007 153.021814,19.982 152.121814,20.638 C151.663814,20.97 151.004814,21.246 150.175814,21.475 C151.281814,21.773 152.225814,22.239 153.038814,22.868 C153.930814,23.553 154.380814,24.535 154.380814,25.78 C154.380814,27.871 153.386814,29.305 151.420814,30.091 C150.388814,30.496 149.119814,30.69 147.623814,30.69 L138.796814,30.69 L138.796814,30.07 C139.225814,30.041 140.464814,29.964 140.921814,29.584 Z M150.566814,17.812 C150.566814,16.267 149.937814,15.25 148.665814,14.711 C147.956814,14.42 146.875814,14.268 145.407814,14.268 C144.842814,14.268 144.532814,14.307 144.420814,14.39 C144.333814,14.45 144.272814,14.66 144.272814,15.087 L144.272814,20.979 L146.719814,20.923 C147.615814,20.908 148.340814,20.768 148.923814,20.504 C150.019814,20.009 150.566814,19.117 150.566814,17.812 Z M151.148814,25.883 C151.148814,24.437 150.621814,23.464 149.577814,22.952 C148.503814,22.414 147.138814,22.142 145.466814,22.142 L144.686814,22.142 L144.272814,22.135 L144.272814,28.604 C144.272814,29.029 144.384814,29.294 144.609814,29.397 C144.857814,29.522 145.439814,29.584 146.404814,29.584 C147.762814,29.584 148.895814,29.329 149.809814,28.808 C150.703814,28.321 151.148814,27.354 151.148814,25.883 Z M166.387814,27.328 C166.387814,27.932 166.425814,28.327 166.498814,28.538 C166.630814,28.995 166.883814,29.196 167.254814,29.196 C167.484814,29.196 167.666814,29.155 167.798814,29.08 C168.140814,28.89 168.431814,28.604 168.729814,28.344 L168.729814,29.484 C168.398814,29.875 168.034814,30.209 167.615814,30.492 C167.011814,30.888 166.393814,31.085 165.773814,31.085 C165.033814,31.085 164.494814,30.841 164.155814,30.34 C163.850814,29.895 163.671814,29.386 163.618814,28.792 C162.891814,29.425 162.260814,29.899 161.723814,30.228 C160.770814,30.79 159.870814,31.085 159.009814,31.085 C158.086814,31.085 157.298814,30.758 156.631814,30.112 C155.961814,29.471 155.623814,28.654 155.623814,27.657 C155.623814,26.124 156.395814,24.845 157.908814,23.825 C158.858814,23.204 160.743814,22.363 163.555814,21.3 L163.555814,20.051 C163.555814,18.984 163.446814,18.278 163.253814,17.88 C162.915814,17.231 162.217814,16.883 161.115814,16.883 C160.597814,16.883 160.116814,17.015 159.645814,17.282 C159.187814,17.545 158.971814,17.899 158.971814,18.36 C158.971814,18.764 159.096814,19.156 159.096814,19.562 C159.096814,20.163 158.890814,20.605 158.481814,20.854 C158.246814,21.002 157.974814,21.059 157.668814,21.059 C157.182814,21.059 156.787814,20.908 156.523814,20.575 C156.260814,20.252 156.137814,19.893 156.137814,19.504 C156.137814,18.74 156.608814,17.961 157.536814,17.163 C158.455814,16.351 159.812814,15.955 161.580814,15.955 C163.632814,15.955 165.044814,16.611 165.789814,17.949 C166.189814,18.682 166.387814,19.737 166.387814,21.106 L166.387814,27.328 L166.387814,27.328 Z M160.760814,23.502 C159.300814,24.418 158.595814,25.446 158.595814,26.568 C158.595814,27.49 158.890814,28.161 159.479814,28.588 C159.851814,28.87 160.286814,29.002 160.770814,29.002 C161.426814,29.002 162.054814,28.825 162.658814,28.449 C163.261814,28.08 163.555814,27.615 163.555814,27.064 L163.555814,22.239 C162.428814,22.622 161.499814,23.049 160.760814,23.502 Z M170.225814,29.701 C170.497814,29.455 170.640814,28.89 170.640814,27.951 L170.640814,20.036 C170.640814,19.377 170.579814,18.933 170.470814,18.687 C170.288814,18.341 169.935814,18.151 169.342814,18.151 L169.078814,18.174 L168.612814,18.225 L168.612814,17.492 C169.605814,17.213 170.680814,16.86 171.649814,16.546 L173.096814,16.08 C173.200814,16.08 173.290814,16.107 173.316814,16.211 L173.348814,16.437 L173.348814,18.429 C174.248814,17.635 174.953814,17.077 175.481814,16.766 C176.303814,16.262 177.159814,16.021 178.057814,16.021 C178.785814,16.021 179.455814,16.223 180.050814,16.638 C181.221814,17.456 181.779814,18.895 181.779814,20.923 L181.779814,28.203 C181.779814,28.928 181.931814,29.432 182.206814,29.736 C182.586814,30.147 183.357814,30.205 183.850814,30.209 C184.336814,30.183 185.406814,30.091 185.856814,29.736 C186.141814,29.497 186.303814,28.979 186.303814,28.126 L186.303814,15.591 C186.303814,14.85 186.178814,14.423 185.964814,14.254 C185.728814,14.067 185.385814,13.97 184.932814,13.97 C184.557814,13.97 184.191814,14.005 183.823814,14.035 L183.823814,13.438 L185.320814,13.047 C186.394814,12.768 187.318814,12.504 188.070814,12.256 C188.528814,12.108 188.810814,12.023 188.907814,12.023 C189.041814,12.023 189.113814,12.062 189.137814,12.198 L189.141814,12.326 L189.141814,22.145 L193.210814,18.479 C193.516814,18.198 193.721814,17.988 193.820814,17.83 C193.928814,17.674 193.960814,17.545 193.960814,17.448 C193.960814,17.251 193.880814,17.135 193.685814,17.092 C193.316814,16.991 192.732814,16.964 192.368814,16.949 L192.368814,16.333 L199.022814,16.333 L199.022814,16.949 C198.077814,16.999 197.058814,17.163 196.211814,17.642 C195.532814,18.038 194.198814,19.156 192.217814,21.044 L191.433814,21.747 L194.144814,25.376 C195.609814,27.295 196.719814,28.556 197.456814,29.184 C198.162814,29.786 198.906814,30.135 199.849814,30.215 L199.849814,30.827 L192.750814,30.827 L192.750814,30.209 L193.376814,30.183 C193.546814,30.174 193.697814,30.135 193.837814,30.076 C193.949814,30.022 193.987814,29.949 193.987814,29.828 C193.987814,29.599 193.856814,29.386 193.721814,29.208 L189.141814,23.081 L189.141814,28.615 C189.141814,29.321 189.396814,29.762 189.881814,29.984 C190.319814,30.186 191.107814,30.205 191.544814,30.209 L191.544814,30.827 L176.920814,30.827 L176.920814,30.215 C177.421814,30.151 178.130814,30.019 178.521814,29.62 C178.794814,29.331 178.940814,28.685 178.940814,27.636 L178.940814,20.94 C178.940814,20.054 178.774814,19.315 178.452814,18.74 C178.130814,18.186 177.552814,17.895 176.667814,17.895 C176.062814,17.895 175.453814,18.1 174.829814,18.512 C174.476814,18.731 174.030814,19.12 173.480814,19.656 L173.480814,28.395 C173.480814,29.134 173.646814,29.584 173.952814,29.822 C174.376814,30.151 175.069814,30.202 175.566814,30.209 L175.566814,30.827 L168.675814,30.827 L168.675814,30.215 C169.136814,30.166 169.849814,30.049 170.225814,29.701 L170.225814,29.701 Z" id="Fill-4" fill="#FFFFFE"></path>
                <g id="Group-8" transform="translate(2.015814, 1.937000)">
                    <path d="M209.124,43.0330318 C212.765,43.045 216.698,39.659 215.445,35.33 L208.674,5.979 C207.902,2.943 205.343,0.84 202.206,0.801 L14.158,0.801 C11.161,0.84 8.507,2.943 7.844,5.979 L1.076,35.33 C-0.103,39.659 3.733,43.045 7.313,43.0330318 L209.124,43.0330318 Z M209.124,40.7480079 C211.385,40.753 213.583,38.384 213.242,36.033 L206.168,6.746 C205.885,4.687 204.336,3.221 202.206,3.24079784 L14.158,3.24079784 C12.25,3.221 10.516,4.687 10.198,6.746 L3.202,36.033 C2.918,38.384 5.024,40.753 7.313,40.7480079 L209.124,40.7480079 L209.124,40.7480079 Z" id="Fill-5" fill="#FFFFFE"></path>
                    <path d="M224.783,41.457 L225.576,41.443 C226.436,41.426 226.791,41.312 226.779,40.676 C226.769,40.195 226.473,39.984 225.721,39.999 L224.753,40.019 L224.783,41.457 Z M224.836,44.158 L224.117,44.172 L224.022,39.418 L225.824,39.382 C226.918,39.359 227.481,39.794 227.5,40.699 C227.515,41.546 226.964,41.926 226.372,42.021 L227.699,44.101 L226.829,44.118 L225.534,42.061 L224.794,42.074 L224.836,44.158 Z M228.915,41.66 C228.876,39.751 227.415,38.297 225.556,38.333 C223.67,38.371 222.271,39.883 222.309,41.791 C222.347,43.741 223.806,45.184 225.692,45.146 C227.55,45.11 228.954,43.609 228.915,41.66 Z M221.515,41.807 C221.469,39.517 223.31,37.729 225.542,37.684 C227.766,37.64 229.665,39.355 229.709,41.643 C229.755,43.97 227.929,45.753 225.704,45.797 C223.471,45.84 221.562,44.133 221.515,41.807 L221.515,41.807 Z" id="Fill-7" fill="#000000"></path>
                </g>
            </g>
        </g>
    </g>
</svg>