<svg width="18" height="28" viewBox="0 0 18 28" fill="none" xmlns="http://www.w3.org/2000/svg">
<path d="M0 18.6064L5.7007 16.511L11.4014 18.6064V28H0V18.6064Z" fill="#AEB0C1"/>
<path d="M0 8.73427L5.59887 6.55493L5.62041 16.6207L0 18.7592V8.73427Z" fill="#DDDEE4"/>
<path d="M11.4013 8.866L17.0002 6.71533L17.0217 16.6487L11.4013 18.7591V8.866Z" fill="#DDDEE4"/>
<path d="M11.4013 8.63217L5.62032 6.55493L5.64237 16.5142L11.4013 18.5987V8.63217Z" fill="#82848D"/>
<path d="M11.3043 0C8.88024 0 6.90814 1.9721 6.90814 4.39612C6.90814 7.40441 10.8423 11.8208 11.0098 12.0073C11.1671 12.1825 11.4418 12.1822 11.5988 12.0073C11.7663 11.8208 15.7004 7.40441 15.7004 4.39612C15.7004 1.9721 13.7283 0 11.3043 0ZM11.3043 6.60793C10.0847 6.60793 9.0925 5.61572 9.0925 4.39612C9.0925 3.17652 10.0847 2.18433 11.3043 2.18433C12.5239 2.18433 13.516 3.17655 13.516 4.39614C13.516 5.61574 12.5239 6.60793 11.3043 6.60793Z" fill="#B3B5C6"/>
</svg>
