<svg width="32" height="52" viewBox="0 0 32 52" fill="none" xmlns="http://www.w3.org/2000/svg">
<path d="M0 34.5554L10.5867 30.6641L21.1734 34.5554V52.0001H0V34.5554Z" fill="#9A9F84"/>
<path d="M0 16.2201L10.3976 12.1729L10.4376 30.8659L0 34.8373V16.2201Z" fill="#CFD2C0"/>
<path d="M21.1742 16.4637L31.5718 12.4697L31.6118 30.9168L21.1742 34.8359V16.4637Z" fill="#CFD2C0"/>
<path d="M21.1742 16.0305L10.4384 12.1729L10.4794 30.668L21.1742 34.5391V16.0305Z" fill="#EBEDE3"/>
<path d="M20.9912 0C16.4895 0 12.8271 3.66235 12.8271 8.16397C12.8271 13.7506 20.1331 21.9521 20.4442 22.2986C20.7364 22.624 21.2465 22.6234 21.5381 22.2986C21.8492 21.9521 29.1552 13.7506 29.1552 8.16397C29.1551 3.66235 25.4928 0 20.9912 0ZM20.9912 12.2715C18.7263 12.2715 16.8837 10.4289 16.8837 8.16397C16.8837 5.89907 18.7263 4.05649 20.9912 4.05649C23.256 4.05649 25.0986 5.89912 25.0986 8.16401C25.0986 10.4289 23.256 12.2715 20.9912 12.2715Z" fill="#E55934"/>
</svg>
