<svg width="23" height="71" viewBox="0 0 23 71" fill="none" xmlns="http://www.w3.org/2000/svg">
<path d="M0.2 29.2V11.2C0.2 9.33333 0.5 7.73333 1.1 6.4C1.7 5 2.46667 3.86666 3.4 3C4.4 2.13333 5.5 1.5 6.7 1.09999C7.96667 0.699995 9.26667 0.499996 10.6 0.499996H11.6C12.8667 0.499996 14.1333 0.699995 15.4 1.09999C16.6667 1.5 17.8 2.13333 18.8 3C19.8 3.86666 20.6 5 21.2 6.4C21.8 7.73333 22.1 9.33333 22.1 11.2V21.7C22.1 24.0333 21.8 26.1667 21.2 28.1C20.6 29.9667 19.8667 31.8333 19 33.7C18.1333 35.5 17.1667 37.3333 16.1 39.2C15.0333 41.0667 14.0667 43.1667 13.2 45.5C12.3333 47.7667 11.6 50.3 11 53.1C10.4 55.9 10.1 59.1 10.1 62.7H23V71H0.2V62.7C0.2 58.5 0.5 54.8667 1.1 51.8C1.7 48.6667 2.43333 45.9 3.3 43.5C4.16667 41.1 5.13333 38.9667 6.2 37.1C7.26667 35.2333 8.23333 33.4333 9.1 31.7C9.96667 29.9 10.7 28.1 11.3 26.3C11.9 24.4333 12.2 22.3667 12.2 20.1V12.7C12.2 11.2333 12.1 10.2333 11.9 9.7C11.7 9.1 11.3333 8.8 10.8 8.8H10.6C10.0667 8.8 9.7 9.1 9.5 9.7C9.3 10.2333 9.2 11.2 9.2 12.6V29.2H0.2Z" fill="#E55934"/>
</svg>
