<svg width="23" height="71" viewBox="0 0 23 71" fill="none" xmlns="http://www.w3.org/2000/svg">
<path d="M10.6 70.6C9.26667 70.6 7.96667 70.4 6.7 70C5.5 69.6 4.4 68.9667 3.4 68.1C2.46667 67.2333 1.7 66.1333 1.1 64.8C0.5 63.4 0.2 61.7667 0.2 59.9V40.9H10.1V58.4C10.1 59.8 10.2 60.8 10.4 61.4C10.6 62 10.9667 62.3 11.5 62.3H11.7C12.2333 62.3 12.6 62 12.8 61.4C13 60.8 13.1 59.8 13.1 58.4V38C13.1 36.5333 13 35.5333 12.8 35C12.6 34.4 12.2333 34.1 11.7 34.1H11.5C10.9667 34.1 10.6 34.3 10.4 34.7C10.2667 35.1 10.1667 35.8 10.1 36.8V38.8H0.2V0.0999939H23L22.1 8.39999H10.1V29.2C10.8333 28.0667 11.6667 27.2333 12.6 26.7C13.6 26.1 14.6 25.8 15.6 25.8H16.2C17.0667 25.8 17.9 26 18.7 26.4C19.5 26.8 20.2 27.4333 20.8 28.3C21.4667 29.1667 22 30.3 22.4 31.7C22.8 33.0333 23 34.6333 23 36.5V59.9C23 61.7667 22.7 63.4 22.1 64.8C21.5 66.1333 20.7 67.2333 19.7 68.1C18.7667 68.9667 17.6667 69.6 16.4 70C15.1333 70.4 13.8667 70.6 12.6 70.6H10.6Z" fill="#E55934"/>
</svg>
