<svg width="23" height="72" viewBox="0 0 23 72" fill="none" xmlns="http://www.w3.org/2000/svg">
<path d="M10.8 31.5C11.8 31.5 12.4333 31.0667 12.7 30.2C12.9667 29.2667 13.1 28.1 13.1 26.7V12.7C13.1 11.2333 13 10.2333 12.8 9.7C12.6 9.1 12.2333 8.8 11.7 8.8H11.5C10.9667 8.8 10.6 9.1 10.4 9.7C10.2 10.2333 10.1 11.2 10.1 12.6V29.4H0.2V11.2C0.2 9.33333 0.5 7.73333 1.1 6.4C1.7 5 2.46667 3.86666 3.4 3C4.4 2.13333 5.5 1.5 6.7 1.09999C7.96667 0.699995 9.26667 0.499996 10.6 0.499996H12.6C13.8667 0.499996 15.1333 0.699995 16.4 1.09999C17.6667 1.5 18.7667 2.13333 19.7 3C20.7 3.86666 21.5 5 22.1 6.4C22.7 7.73333 23 9.33333 23 11.2V25.5C23 28.5 22.2667 30.7333 20.8 32.2C19.4 33.6667 17.7 34.6 15.7 35C17.7 35.3333 19.4 36.1333 20.8 37.4C22.2667 38.6 23 40.7 23 43.7V60.9C23 62.7667 22.7 64.4 22.1 65.8C21.5 67.1333 20.7 68.2333 19.7 69.1C18.7667 69.9667 17.6667 70.6 16.4 71C15.1333 71.4 13.8667 71.6 12.6 71.6H10.6C9.26667 71.6 7.96667 71.4 6.7 71C5.5 70.6 4.4 69.9667 3.4 69.1C2.46667 68.2333 1.7 67.1333 1.1 65.8C0.5 64.4 0.2 62.7667 0.2 60.9V42.8H10.1V59.5C10.1 60.9 10.2 61.9 10.4 62.5C10.6 63.0333 10.9667 63.3 11.5 63.3H11.7C12.2333 63.3 12.6 63.0333 12.8 62.5C13 61.9667 13.1 60.9333 13.1 59.4V43.4C13.1 42 12.9667 40.8667 12.7 40C12.4333 39.0667 11.8 38.6 10.8 38.6H7.9V31.5H10.8Z" fill="#E55934"/>
</svg>
