<svg width="11" height="8" viewBox="0 0 11 8" fill="none" xmlns="http://www.w3.org/2000/svg">
<path d="M10.9996 3.32497L10.9996 3.9105L-1.4476e-05 3.9105L-1.44505e-05 3.32497L5.49978 3.32497L7.27728 3.32497L9.18025 3.42953L9.18025 3.36679L8.84011 3.16028C8.29265 2.82789 7.8236 2.38098 7.46516 1.85021L7.27728 1.572C7.04148 1.22284 6.85659 0.84188 6.72818 0.440597L6.58719 -1.92871e-07L8.15557 -1.24315e-07C8.15557 -1.24315e-07 8.27549 0.68726 8.49016 1.12923C8.57003 1.29367 8.66573 1.47815 8.76611 1.66538C9.22514 2.52151 10.0519 3.11141 10.9996 3.32497Z" fill="black"/>
<path d="M10.9996 4.55298L10.9996 3.8898L-1.41314e-05 3.8898L-1.41604e-05 4.55298L5.49978 4.55298L7.27728 4.55298L9.18025 4.44889L9.18025 4.51134L8.84092 4.71644C8.29292 5.04766 7.82307 5.49352 7.46361 6.02341L7.27937 6.29501C7.04219 6.64464 6.85614 7.02634 6.72685 7.42856L6.58719 7.86304L8.15557 7.86304C8.15557 7.86304 8.27549 7.17886 8.49016 6.73887C8.56942 6.57642 8.66427 6.39431 8.76382 6.20938C9.22423 5.35411 10.0518 4.7656 10.9996 4.55298Z" fill="black"/>
</svg>
