<svg width="14" height="11" viewBox="0 0 14 11" fill="none" xmlns="http://www.w3.org/2000/svg">
<path d="M13.0016 1.25469C12.5234 1.46094 12.0031 1.60938 11.4672 1.66719C12.0236 1.33662 12.4403 0.814381 12.6391 0.198444C12.1169 0.509052 11.5449 0.726856 10.9484 0.842194C10.6991 0.575673 10.3976 0.36335 10.0627 0.218456C9.72771 0.0735613 9.36651 -0.000799662 9.00156 6.485e-06C7.525 6.485e-06 6.3375 1.19688 6.3375 2.66563C6.3375 2.87188 6.3625 3.07813 6.40313 3.27657C4.19219 3.16094 2.22031 2.10469 0.909375 0.487506C0.670508 0.895499 0.545334 1.36005 0.546875 1.83282C0.546875 2.75782 1.01719 3.57344 1.73437 4.05313C1.31173 4.03649 0.898973 3.92032 0.529688 3.71407V3.74688C0.529688 5.04219 1.44531 6.11563 2.66563 6.36251C2.4365 6.42202 2.20079 6.45247 1.96406 6.45313C1.79063 6.45313 1.62656 6.43594 1.46094 6.41251C1.79844 7.46876 2.78125 8.23594 3.95156 8.26094C3.03594 8.97813 1.88906 9.40001 0.64375 9.40001C0.420313 9.40001 0.214062 9.39219 0 9.36719C1.18125 10.125 2.58281 10.5625 4.09219 10.5625C8.99219 10.5625 11.6734 6.50313 11.6734 2.97969C11.6734 2.86407 11.6734 2.74844 11.6656 2.63282C12.1844 2.25313 12.6391 1.78282 13.0016 1.25469Z" fill="#61664D"/>
</svg>
