<svg width="94" height="38" viewBox="0 0 94 38" fill="none" xmlns="http://www.w3.org/2000/svg">
<path d="M24.6 9.04C24.6 8.224 24.748 7.508 25.044 6.892C25.348 6.268 25.776 5.788 26.328 5.452C26.88 5.108 27.524 4.936 28.26 4.936C29.116 4.936 29.812 5.148 30.348 5.572C30.892 5.996 31.264 6.62 31.464 7.444L30.252 7.684C30.092 7.068 29.852 6.624 29.532 6.352C29.212 6.072 28.784 5.932 28.248 5.932C27.512 5.932 26.928 6.212 26.496 6.772C26.064 7.324 25.848 8.072 25.848 9.016V9.052C25.848 10.004 26.056 10.76 26.472 11.32C26.896 11.872 27.488 12.148 28.248 12.148C28.832 12.148 29.284 11.992 29.604 11.68C29.932 11.368 30.16 10.916 30.288 10.324L31.488 10.552C31.32 11.384 30.956 12.024 30.396 12.472C29.836 12.92 29.116 13.144 28.236 13.144C27.484 13.144 26.836 12.976 26.292 12.64C25.748 12.296 25.328 11.816 25.032 11.2C24.744 10.576 24.6 9.856 24.6 9.04ZM32.4496 10.012C32.4496 9.42 32.5656 8.888 32.7976 8.416C33.0376 7.936 33.3776 7.56 33.8176 7.288C34.2656 7.016 34.7936 6.88 35.4016 6.88C36.3056 6.88 37.0056 7.16 37.5016 7.72C37.9976 8.272 38.2456 9.02 38.2456 9.964C38.2456 10.572 38.1256 11.116 37.8856 11.596C37.6456 12.076 37.3056 12.452 36.8656 12.724C36.4256 12.996 35.9096 13.132 35.3176 13.132C34.3976 13.132 33.6896 12.856 33.1936 12.304C32.6976 11.744 32.4496 10.98 32.4496 10.012ZM37.0096 9.988C37.0096 9.316 36.8656 8.784 36.5776 8.392C36.2976 7.992 35.8976 7.792 35.3776 7.792C34.8416 7.792 34.4256 7.992 34.1296 8.392C33.8416 8.784 33.6976 9.316 33.6976 9.988C33.6976 10.668 33.8416 11.212 34.1296 11.62C34.4176 12.02 34.8216 12.22 35.3416 12.22C35.8696 12.22 36.2776 12.02 36.5656 11.62C36.8616 11.212 37.0096 10.668 37.0096 9.988ZM40.9136 7.852C40.9136 7.988 40.9056 8.144 40.8896 8.32C40.8816 8.488 40.8736 8.604 40.8656 8.668H40.9376C41.0816 8.148 41.3336 7.724 41.6936 7.396C42.0616 7.068 42.5016 6.904 43.0136 6.904C43.5256 6.904 43.9176 7.064 44.1896 7.384C44.4616 7.704 44.6216 8.132 44.6696 8.668H44.7416C44.9096 8.108 45.1736 7.676 45.5336 7.372C45.8936 7.06 46.3136 6.904 46.7936 6.904C47.8896 6.904 48.4376 7.636 48.4376 9.1V13H47.2376V9.376C47.2376 8.88 47.1696 8.516 47.0336 8.284C46.9056 8.052 46.6696 7.936 46.3256 7.936C45.9176 7.936 45.5616 8.108 45.2576 8.452C44.9536 8.788 44.7776 9.292 44.7296 9.964V13H43.5296V9.364C43.5296 8.852 43.4496 8.488 43.2896 8.272C43.1296 8.048 42.8736 7.936 42.5216 7.936C42.2416 7.936 41.9816 8.02 41.7416 8.188C41.5096 8.348 41.3216 8.584 41.1776 8.896C41.0336 9.2 40.9576 9.56 40.9496 9.976V13H39.7496V7.036H40.9136V7.852ZM51.4957 7.852C51.4957 7.988 51.4877 8.144 51.4717 8.32C51.4637 8.488 51.4557 8.604 51.4477 8.668H51.5197C51.6637 8.148 51.9157 7.724 52.2757 7.396C52.6437 7.068 53.0837 6.904 53.5957 6.904C54.1077 6.904 54.4997 7.064 54.7717 7.384C55.0437 7.704 55.2037 8.132 55.2517 8.668H55.3237C55.4917 8.108 55.7557 7.676 56.1157 7.372C56.4757 7.06 56.8957 6.904 57.3757 6.904C58.4717 6.904 59.0197 7.636 59.0197 9.1V13H57.8197V9.376C57.8197 8.88 57.7517 8.516 57.6157 8.284C57.4877 8.052 57.2517 7.936 56.9077 7.936C56.4997 7.936 56.1437 8.108 55.8397 8.452C55.5357 8.788 55.3597 9.292 55.3117 9.964V13H54.1117V9.364C54.1117 8.852 54.0317 8.488 53.8717 8.272C53.7117 8.048 53.4557 7.936 53.1037 7.936C52.8237 7.936 52.5637 8.02 52.3237 8.188C52.0917 8.348 51.9037 8.584 51.7597 8.896C51.6157 9.2 51.5397 9.56 51.5317 9.976V13H50.3317V7.036H51.4957V7.852ZM60.8177 7.036H62.0297V10.696C62.0297 11.2 62.1057 11.56 62.2577 11.776C62.4177 11.992 62.6737 12.1 63.0257 12.1C63.4257 12.1 63.7617 11.924 64.0337 11.572C64.3137 11.212 64.4657 10.756 64.4897 10.204V7.036H65.7017V13H64.5737V12.304L64.6097 11.38H64.5377C64.5057 11.612 64.4137 11.86 64.2617 12.124C64.1097 12.388 63.8977 12.616 63.6257 12.808C63.3537 13 63.0377 13.096 62.6777 13.096C62.0457 13.096 61.5777 12.912 61.2737 12.544C60.9697 12.176 60.8177 11.624 60.8177 10.888V7.036ZM68.816 7.852C68.816 7.972 68.808 8.12 68.792 8.296C68.784 8.472 68.776 8.596 68.768 8.668H68.84C68.984 8.148 69.24 7.724 69.608 7.396C69.984 7.068 70.432 6.904 70.952 6.904C71.544 6.904 71.992 7.088 72.296 7.456C72.608 7.824 72.764 8.368 72.764 9.088V13H71.552V9.364C71.552 8.86 71.46 8.496 71.276 8.272C71.092 8.048 70.82 7.936 70.46 7.936C70.172 7.936 69.908 8.02 69.668 8.188C69.428 8.348 69.232 8.584 69.08 8.896C68.936 9.2 68.86 9.56 68.852 9.976V13H67.652V7.036H68.816V7.852ZM74.5998 4.732C74.5998 4.668 74.6318 4.636 74.6958 4.636H75.8478C75.8958 4.636 75.9198 4.668 75.9198 4.732V5.92C75.9198 5.976 75.8958 6.004 75.8478 6.004H74.6838C74.6278 6.004 74.5998 5.976 74.5998 5.92V4.732ZM75.8598 7.036V13H74.6718V7.036H75.8598ZM78.1836 7.036V5.548L79.2516 5.056V6.592L79.2036 7.036H80.7636V8.008H79.2036L79.2516 8.464V11.176C79.2516 11.44 79.2716 11.636 79.3116 11.764C79.3596 11.892 79.4396 11.98 79.5516 12.028C79.6636 12.076 79.8316 12.1 80.0556 12.1C80.3276 12.1 80.6276 12.048 80.9556 11.944V12.844C80.7716 12.916 80.5636 12.976 80.3316 13.024C80.1076 13.072 79.8836 13.096 79.6596 13.096C79.1076 13.096 78.7116 12.968 78.4716 12.712C78.2396 12.448 78.1236 11.996 78.1236 11.356V8.008H77.1516V7.036H78.1836ZM81.8224 14.404C82.0464 14.452 82.2504 14.476 82.4344 14.476C82.7704 14.476 83.0264 14.38 83.2024 14.188C83.3864 14.004 83.5464 13.664 83.6824 13.168L81.3664 7.036H82.6384L83.8384 10.672L84.1624 12.04H84.2344L84.5464 10.672L85.6744 7.036H86.9224L84.6184 13.576C84.4024 14.184 84.1344 14.644 83.8144 14.956C83.5024 15.268 83.0704 15.424 82.5184 15.424C82.3984 15.424 82.2704 15.408 82.1344 15.376C81.9984 15.352 81.8944 15.324 81.8224 15.292V14.404ZM27.804 16.092C28.788 16.092 29.512 16.28 29.976 16.656C30.44 17.024 30.672 17.536 30.672 18.192C30.672 18.648 30.532 19.064 30.252 19.44C29.972 19.816 29.508 20.072 28.86 20.208C29.46 20.336 29.928 20.68 30.264 21.24C30.608 21.8 30.82 22.572 30.9 23.556C30.908 23.804 30.92 23.952 30.936 24H29.676C29.676 23.976 29.672 23.936 29.664 23.88C29.664 23.824 29.664 23.74 29.664 23.628C29.592 22.66 29.388 21.948 29.052 21.492C28.716 21.036 28.208 20.808 27.528 20.808H26.328V24H25.128V16.092H27.804ZM27.612 19.884C28.244 19.884 28.704 19.744 28.992 19.464C29.288 19.176 29.436 18.808 29.436 18.36C29.436 17.928 29.3 17.604 29.028 17.388C28.756 17.172 28.28 17.064 27.6 17.064H26.328V19.884H27.612ZM32.1809 21.048C32.1809 20.064 32.4289 19.292 32.9249 18.732C33.4289 18.164 34.1129 17.88 34.9769 17.88C35.8569 17.88 36.5049 18.148 36.9209 18.684C37.3449 19.212 37.5529 19.924 37.5449 20.82L37.5329 21.264H33.3689C33.4089 21.92 33.5769 22.408 33.8729 22.728C34.1769 23.048 34.5769 23.208 35.0729 23.208C35.4089 23.208 35.7049 23.136 35.9609 22.992C36.2249 22.848 36.4209 22.656 36.5489 22.416L37.3529 22.98C36.8089 23.748 36.0249 24.132 35.0009 24.132C34.1049 24.132 33.4089 23.86 32.9129 23.316C32.4249 22.772 32.1809 22.016 32.1809 21.048ZM36.3209 20.484V20.436C36.3209 19.332 35.8609 18.78 34.9409 18.78C34.5089 18.78 34.1529 18.92 33.8729 19.2C33.6009 19.472 33.4449 19.9 33.4049 20.484H36.3209ZM39.2622 22.296C39.4542 22.608 39.6902 22.84 39.9702 22.992C40.2502 23.144 40.5542 23.22 40.8822 23.22C41.1942 23.22 41.4422 23.156 41.6262 23.028C41.8182 22.892 41.9142 22.7 41.9142 22.452C41.9142 22.188 41.7942 21.984 41.5542 21.84C41.3142 21.696 40.9222 21.532 40.3782 21.348C39.8502 21.164 39.4382 20.948 39.1422 20.7C38.8542 20.444 38.7102 20.084 38.7102 19.62C38.7102 19.116 38.9142 18.704 39.3222 18.384C39.7302 18.064 40.2582 17.904 40.9062 17.904C41.8662 17.904 42.5782 18.248 43.0422 18.936L42.2502 19.572C42.1382 19.364 41.9662 19.184 41.7342 19.032C41.5022 18.872 41.2222 18.792 40.8942 18.792C40.5982 18.792 40.3582 18.86 40.1742 18.996C39.9902 19.132 39.8982 19.308 39.8982 19.524C39.8982 19.708 39.9582 19.864 40.0782 19.992C40.1982 20.112 40.3462 20.212 40.5222 20.292C40.6982 20.364 40.9662 20.464 41.3262 20.592C41.7022 20.728 42.0102 20.864 42.2502 21C42.4982 21.128 42.7022 21.308 42.8622 21.54C43.0222 21.764 43.1022 22.052 43.1022 22.404C43.1022 22.932 42.8942 23.348 42.4782 23.652C42.0702 23.956 41.5262 24.108 40.8462 24.108C40.3342 24.108 39.8662 24.004 39.4422 23.796C39.0182 23.588 38.6942 23.288 38.4702 22.896L39.2622 22.296ZM44.1098 21.012C44.1098 20.42 44.2258 19.888 44.4578 19.416C44.6978 18.936 45.0378 18.56 45.4778 18.288C45.9258 18.016 46.4538 17.88 47.0618 17.88C47.9658 17.88 48.6658 18.16 49.1618 18.72C49.6578 19.272 49.9058 20.02 49.9058 20.964C49.9058 21.572 49.7858 22.116 49.5458 22.596C49.3058 23.076 48.9658 23.452 48.5258 23.724C48.0858 23.996 47.5698 24.132 46.9778 24.132C46.0578 24.132 45.3498 23.856 44.8538 23.304C44.3578 22.744 44.1098 21.98 44.1098 21.012ZM48.6698 20.988C48.6698 20.316 48.5258 19.784 48.2378 19.392C47.9578 18.992 47.5578 18.792 47.0378 18.792C46.5018 18.792 46.0858 18.992 45.7898 19.392C45.5018 19.784 45.3577 20.316 45.3577 20.988C45.3577 21.668 45.5018 22.212 45.7898 22.62C46.0778 23.02 46.4818 23.22 47.0018 23.22C47.5298 23.22 47.9378 23.02 48.2258 22.62C48.5218 22.212 48.6698 21.668 48.6698 20.988ZM51.3138 18.036H52.5258V21.696C52.5258 22.2 52.6018 22.56 52.7538 22.776C52.9138 22.992 53.1698 23.1 53.5218 23.1C53.9218 23.1 54.2578 22.924 54.5298 22.572C54.8098 22.212 54.9618 21.756 54.9858 21.204V18.036H56.1978V24H55.0698V23.304L55.1058 22.38H55.0338C55.0018 22.612 54.9098 22.86 54.7578 23.124C54.6058 23.388 54.3938 23.616 54.1218 23.808C53.8498 24 53.5338 24.096 53.1738 24.096C52.5418 24.096 52.0738 23.912 51.7698 23.544C51.4658 23.176 51.3138 22.624 51.3138 21.888V18.036ZM59.2641 18.036V18.84L59.1321 20.7H59.2161C59.2961 19.956 59.5081 19.312 59.8521 18.768C60.1961 18.216 60.6801 17.94 61.3041 17.94H61.4841V19.368C61.4121 19.36 61.2681 19.356 61.0521 19.356C60.5081 19.356 60.0921 19.556 59.8041 19.956C59.5241 20.348 59.3601 20.896 59.3121 21.6V24H58.1241V18.036H59.2641ZM62.2507 21C62.2507 20.4 62.3627 19.864 62.5867 19.392C62.8187 18.92 63.1507 18.552 63.5827 18.288C64.0147 18.016 64.5227 17.88 65.1067 17.88C65.7067 17.88 66.1947 18 66.5707 18.24C66.9547 18.48 67.2427 18.86 67.4347 19.38L66.3907 19.836C66.1827 19.156 65.7627 18.816 65.1307 18.816C64.6267 18.816 64.2267 19 63.9307 19.368C63.6427 19.736 63.4987 20.268 63.4987 20.964C63.4987 21.684 63.6347 22.236 63.9067 22.62C64.1867 23.004 64.5907 23.196 65.1187 23.196C65.4547 23.196 65.7387 23.12 65.9707 22.968C66.2027 22.808 66.3707 22.584 66.4747 22.296L67.4107 22.752C67.2267 23.176 66.9387 23.512 66.5467 23.76C66.1547 24.008 65.6667 24.132 65.0827 24.132C64.4987 24.132 63.9947 24.004 63.5707 23.748C63.1467 23.492 62.8187 23.128 62.5867 22.656C62.3627 22.184 62.2507 21.632 62.2507 21ZM68.3215 21.048C68.3215 20.064 68.5695 19.292 69.0655 18.732C69.5695 18.164 70.2535 17.88 71.1175 17.88C71.9975 17.88 72.6455 18.148 73.0615 18.684C73.4855 19.212 73.6935 19.924 73.6855 20.82L73.6735 21.264H69.5095C69.5495 21.92 69.7175 22.408 70.0135 22.728C70.3175 23.048 70.7175 23.208 71.2135 23.208C71.5495 23.208 71.8455 23.136 72.1015 22.992C72.3655 22.848 72.5615 22.656 72.6895 22.416L73.4935 22.98C72.9495 23.748 72.1655 24.132 71.1415 24.132C70.2455 24.132 69.5495 23.86 69.0535 23.316C68.5655 22.772 68.3215 22.016 68.3215 21.048ZM72.4615 20.484V20.436C72.4615 19.332 72.0015 18.78 71.0815 18.78C70.6495 18.78 70.2935 18.92 70.0135 19.2C69.7415 19.472 69.5855 19.9 69.5455 20.484H72.4615ZM30.324 27.092V28.148H26.328V30.404H29.16V31.436H26.328V33.956H30.48V35H25.128V27.092H30.324ZM33.9489 32.624H33.9009L33.6009 33.212L32.4489 35H31.0809L32.8809 32.42L33.2769 31.952V31.916L32.9169 31.46L31.2969 29.036H32.6409L33.7089 30.716L33.9729 31.268H34.0089L34.2969 30.68L35.3049 29.036H36.6369L35.0169 31.4L34.6089 31.892V31.94L34.9569 32.348L36.7449 35H35.3889L34.2009 33.152L33.9489 32.624ZM38.8826 33.56L39.0266 35.024V37.556H37.8746V29.036H39.0146V29.54L38.9786 30.332H39.0386C39.1986 29.908 39.4586 29.56 39.8186 29.288C40.1786 29.016 40.5986 28.88 41.0786 28.88C41.8306 28.88 42.4066 29.14 42.8066 29.66C43.2066 30.18 43.4066 30.912 43.4066 31.856C43.4066 32.528 43.3026 33.108 43.0946 33.596C42.8866 34.084 42.5986 34.456 42.2306 34.712C41.8706 34.96 41.4546 35.084 40.9826 35.084C40.5026 35.084 40.0826 34.944 39.7226 34.664C39.3706 34.384 39.1146 34.016 38.9546 33.56H38.8826ZM42.1586 31.952C42.1586 31.256 42.0346 30.724 41.7866 30.356C41.5386 29.98 41.1626 29.792 40.6586 29.792C40.3226 29.792 40.0266 29.896 39.7706 30.104C39.5146 30.312 39.3186 30.58 39.1826 30.908C39.0466 31.228 38.9786 31.552 38.9786 31.88V32.204C38.9786 32.788 39.1226 33.264 39.4106 33.632C39.6986 34 40.1066 34.184 40.6346 34.184C41.0986 34.184 41.4666 33.976 41.7386 33.56C42.0186 33.144 42.1586 32.608 42.1586 31.952ZM46.129 26.192V35H44.953V26.192H46.129ZM47.6371 32.012C47.6371 31.42 47.7531 30.888 47.9851 30.416C48.2251 29.936 48.5651 29.56 49.0051 29.288C49.4531 29.016 49.9811 28.88 50.5891 28.88C51.4931 28.88 52.1931 29.16 52.6891 29.72C53.1851 30.272 53.4331 31.02 53.4331 31.964C53.4331 32.572 53.3131 33.116 53.0731 33.596C52.8331 34.076 52.4931 34.452 52.0531 34.724C51.6131 34.996 51.0971 35.132 50.5051 35.132C49.5851 35.132 48.8771 34.856 48.3811 34.304C47.8851 33.744 47.6371 32.98 47.6371 32.012ZM52.1971 31.988C52.1971 31.316 52.0531 30.784 51.7651 30.392C51.4851 29.992 51.0851 29.792 50.5651 29.792C50.0291 29.792 49.6131 29.992 49.3171 30.392C49.0291 30.784 48.8851 31.316 48.8851 31.988C48.8851 32.668 49.0291 33.212 49.3171 33.62C49.6051 34.02 50.0091 34.22 50.5291 34.22C51.0571 34.22 51.4651 34.02 51.7531 33.62C52.0491 33.212 52.1971 32.668 52.1971 31.988ZM56.0531 29.036V29.84L55.9211 31.7H56.0051C56.0851 30.956 56.2971 30.312 56.6411 29.768C56.9851 29.216 57.4691 28.94 58.0931 28.94H58.2731V30.368C58.2011 30.36 58.0571 30.356 57.8411 30.356C57.2971 30.356 56.8811 30.556 56.5931 30.956C56.3131 31.348 56.1491 31.896 56.1011 32.6V35H54.9131V29.036H56.0531ZM59.0637 32.048C59.0637 31.064 59.3117 30.292 59.8077 29.732C60.3117 29.164 60.9957 28.88 61.8597 28.88C62.7397 28.88 63.3877 29.148 63.8037 29.684C64.2277 30.212 64.4357 30.924 64.4277 31.82L64.4157 32.264H60.2517C60.2917 32.92 60.4597 33.408 60.7557 33.728C61.0597 34.048 61.4597 34.208 61.9557 34.208C62.2917 34.208 62.5877 34.136 62.8437 33.992C63.1077 33.848 63.3037 33.656 63.4317 33.416L64.2357 33.98C63.6917 34.748 62.9077 35.132 61.8837 35.132C60.9877 35.132 60.2917 34.86 59.7957 34.316C59.3077 33.772 59.0637 33.016 59.0637 32.048ZM63.2037 31.484V31.436C63.2037 30.332 62.7437 29.78 61.8237 29.78C61.3917 29.78 61.0357 29.92 60.7557 30.2C60.4837 30.472 60.3277 30.9 60.2877 31.484H63.2037ZM67.057 29.036V29.84L66.925 31.7H67.009C67.089 30.956 67.301 30.312 67.645 29.768C67.989 29.216 68.473 28.94 69.097 28.94H69.277V30.368C69.205 30.36 69.061 30.356 68.845 30.356C68.301 30.356 67.885 30.556 67.597 30.956C67.317 31.348 67.153 31.896 67.105 32.6V35H65.917V29.036H67.057Z" fill="#292D33"/>
<path d="M0 24.678L6.02905 22.4619L12.0581 24.678V34.6126H0V24.678Z" fill="#AEB0C1"/>
<path d="M0 14.2372L5.92136 11.9324L5.94413 22.5779L0 24.8396V14.2372Z" fill="#DDDEE4"/>
<path d="M12.0564 14.3763L17.9778 12.1018L18.0005 22.6073L12.0564 24.8392V14.3763Z" fill="#DDDEE4"/>
<path d="M12.0564 14.1293L5.94244 11.9324L5.96576 22.4652L12.0564 24.6698V14.1293Z" fill="#82848D"/>
<path d="M11.9553 5C9.39159 5 7.30591 7.08569 7.30591 9.64933C7.30591 12.8309 11.4666 17.5016 11.6438 17.6989C11.8102 17.8842 12.1007 17.8839 12.2668 17.6989C12.4439 17.5016 16.6046 12.8309 16.6046 9.64933C16.6046 7.08569 14.5189 5 11.9553 5ZM11.9553 11.9885C10.6654 11.9885 9.61608 10.9392 9.61608 9.64933C9.61608 8.35948 10.6654 7.31015 11.9553 7.31015C13.2451 7.31015 14.2944 8.35951 14.2944 9.64935C14.2944 10.9392 13.2451 11.9885 11.9553 11.9885Z" fill="#B3B5C6"/>
</svg>
